<?xml version="1.0" encoding="utf-8"?>
<!-- Generator: Adobe Illustrator 18.0.0, SVG Export Plug-In . SVG Version: 6.00 Build 0)  -->
<!DOCTYPE svg PUBLIC "-//W3C//DTD SVG 1.1//EN" "http://www.w3.org/Graphics/SVG/1.1/DTD/svg11.dtd">
<svg version="1.1" id="Layer_1" xmlns="http://www.w3.org/2000/svg" xmlns:xlink="http://www.w3.org/1999/xlink" x="0px" y="0px"
	 viewBox="-160 -140 800 700" enable-background="new 0 0 522.4 345" xml:space="preserve">
<g id="Layer_1_1_">
	<path fill="#030303" d="M611.3,493H-88.9l0-641l700.2,0V493z"/>
	<path fill="none" stroke="#FFFFFF" stroke-width="0.25" stroke-dasharray="3,3" d="M198.2,30.6c16.7,16.9,30.3,36.8,39.9,58.8"/>
	<path fill="none" stroke="#FFFFFF" stroke-width="0.25" stroke-dasharray="3,3" d="M238.1,245.8c-8.3,18.9-19.5,36.3-33.1,51.5"/>
	<path fill="#B1B1B1" stroke="#FFFFFF" stroke-width="0.5" stroke-dasharray="4,2" d="M59.5,163.6v8.6"/>
	<path stroke="#FFFFFF" stroke-width="0.5" stroke-dasharray="4,2" d="M364.8,164.1v8.6"/>
	<path fill="none" stroke="#FFFFFF" stroke-width="0.25" stroke-dasharray="3,3" d="M275.6,35.2c-20.6,13.9-37.8,32.4-50,54.2"/>
	<path fill="none" stroke="#FFFFFF" stroke-width="0.25" stroke-dasharray="3,3" d="M225.6,245.8c11.6,20.6,27.6,38.3,46.8,52"/>
	<path opacity="0.75" fill="#222222" stroke="#FFFFFF" stroke-width="0.75" enable-background="new    " d="M225.6,245.8
		c-13-23.1-20.5-49.8-20.5-78.2c0-28.4,7.4-55.1,20.5-78.2l0,0h12.5l0,0c10.5,23.9,16.3,50.4,16.3,78.2s-5.8,54.3-16.3,78.2l0,0
		L225.6,245.8L225.6,245.8z"/>
	<path stroke="#FFFFFF" stroke-width="0.5" stroke-dasharray="6,3" d="M24.8,167.6h457.5"/>
	<g>
		<g>
			<path fill="#FFFFFF" d="M205.2,23.5l7.2-2.2v4.5L205.2,23.5z"/>
			<path fill="#FFFFFF" d="M212.4,23.5"/>
		</g>
		<path fill="none" stroke="#FFFFFF" stroke-width="0.5" stroke-linecap="square" d="M212.4,23.5h9.5"/>
	</g>
	<g>
		<g>
			<path fill="#FFFFFF" d="M254.5,23.5l-7.2-2.2v4.5L254.5,23.5z"/>
			<path fill="#FFFFFF" d="M247.2,23.5"/>
		</g>
		<path fill="none" stroke="#FFFFFF" stroke-width="0.5" stroke-linecap="square" d="M247.2,23.5h-9.5"/>
	</g>
	<g>
		<g>
			<path fill="#FFFFFF" d="M235.3,261l4.6-6.1l2.6,3.6L235.3,261z"/>
			<path fill="#FFFFFF" d="M241.2,256.7"/>
		</g>
		<path fill="none" stroke="#FFFFFF" stroke-width="0.5" stroke-linecap="square" d="M241.2,256.7l123.5-89.1"/>
	</g>
	<g>
		<g>
			<path fill="#FFFFFF" d="M216.7,282.9l-7.2-2.5l2.7-3.6L216.7,282.9z"/>
			<path fill="#FFFFFF" d="M210.9,278.6"/>
		</g>
		<path fill="none" stroke="#FFFFFF" stroke-width="0.5" stroke-linecap="square" d="M210.9,278.6l-151.3-111"/>
	</g>
	<path stroke="#FFFFFF" stroke-width="0.5" stroke-dasharray="4,2" d="M457,163.9v8.6"/>
	<g>
		<path fill="#FFFFFF" d="M264.3,259.5l-1.9-5.8c-0.4,0-0.9,0-1.3-0.1l-1.1,3.8c-0.1,0.4-0.2,0.8-0.2,1.1c0,0.2,0.1,0.4,0.3,0.5
			c0.1,0.1,0.5,0.2,1.1,0.2l-0.1,0.3h-4.6l0.1-0.3c0.4,0,0.7-0.1,0.9-0.1c0.2-0.1,0.4-0.2,0.5-0.4c0.2-0.3,0.4-0.8,0.6-1.5l2.1-7.2
			c0.1-0.5,0.2-0.9,0.2-1.1c0-0.3-0.1-0.5-0.3-0.7c-0.2-0.2-0.5-0.3-0.9-0.3l0.1-0.3h3.9c1.3,0,2.2,0.2,2.8,0.7
			c0.6,0.5,0.9,1.1,0.9,1.9c0,0.8-0.3,1.5-0.9,2.1s-1.4,1-2.4,1.2l1.1,3.5c0.3,0.9,0.6,1.4,0.8,1.7s0.7,0.4,1.4,0.4l-0.1,0.3
			L264.3,259.5z M261.2,253.1c0.4,0.1,0.7,0.1,1,0.1c1,0,1.8-0.3,2.4-0.8c0.6-0.6,0.9-1.3,0.9-2.1c0-0.7-0.2-1.2-0.5-1.5
			c-0.4-0.3-0.9-0.5-1.6-0.5c-0.2,0-0.4,0-0.7,0.1L261.2,253.1z"/>
		<path fill="#FFFFFF" d="M269.2,256.3l1.9-0.9h0.2v6.7c0,0.4,0,0.7,0.1,0.8c0,0.1,0.1,0.2,0.2,0.3c0.1,0.1,0.4,0.1,0.7,0.1v0.2h-3
			v-0.2c0.4,0,0.6,0,0.7-0.1c0.1-0.1,0.2-0.1,0.2-0.2c0-0.1,0.1-0.4,0.1-0.9v-4.3c0-0.6,0-0.9-0.1-1.1c0-0.1-0.1-0.2-0.1-0.3
			c-0.1-0.1-0.2-0.1-0.3-0.1c-0.1,0-0.3,0.1-0.6,0.2L269.2,256.3z"/>
	</g>
	<g>
		<path fill="#FFFFFF" d="M174.8,269l-1.9-5.8c-0.4,0-0.9,0-1.3-0.1l-1.1,3.8c-0.1,0.4-0.2,0.8-0.2,1.1c0,0.2,0.1,0.4,0.3,0.5
			c0.1,0.1,0.5,0.2,1.1,0.2l-0.1,0.3h-4.6l0.1-0.3c0.4,0,0.7-0.1,0.9-0.1c0.2-0.1,0.4-0.2,0.5-0.4c0.2-0.3,0.4-0.8,0.6-1.5l2.1-7.2
			c0.1-0.5,0.2-0.9,0.2-1.1c0-0.3-0.1-0.5-0.3-0.7c-0.2-0.2-0.5-0.3-0.9-0.3l0.1-0.3h3.9c1.3,0,2.2,0.2,2.8,0.7
			c0.6,0.5,0.9,1.1,0.9,1.9c0,0.8-0.3,1.5-0.9,2.1c-0.6,0.6-1.4,1-2.4,1.2l1.1,3.5c0.3,0.9,0.6,1.4,0.8,1.7c0.3,0.3,0.7,0.4,1.4,0.4
			l-0.1,0.3H174.8z M171.7,262.6c0.4,0.1,0.7,0.1,1,0.1c1,0,1.8-0.3,2.4-0.8c0.6-0.6,0.9-1.3,0.9-2.1c0-0.7-0.2-1.2-0.5-1.5
			c-0.4-0.3-0.9-0.5-1.6-0.5c-0.2,0-0.4,0-0.7,0.1L171.7,262.6z"/>
		<path fill="#FFFFFF" d="M183.8,271.5l-0.6,1.5h-4.7v-0.2c1.4-1.3,2.3-2.3,2.9-3.1c0.6-0.8,0.8-1.5,0.8-2.2c0-0.5-0.2-0.9-0.5-1.2
			c-0.3-0.3-0.7-0.5-1.1-0.5c-0.4,0-0.7,0.1-1,0.3s-0.5,0.6-0.7,1h-0.2c0.1-0.7,0.3-1.3,0.8-1.7s0.9-0.6,1.5-0.6
			c0.6,0,1.2,0.2,1.6,0.6c0.4,0.4,0.6,0.9,0.6,1.5c0,0.4-0.1,0.8-0.3,1.2c-0.3,0.6-0.8,1.3-1.4,2c-1,1.1-1.6,1.7-1.8,1.9h2.1
			c0.4,0,0.7,0,0.9,0c0.2,0,0.3-0.1,0.5-0.2c0.1-0.1,0.3-0.2,0.4-0.4L183.8,271.5L183.8,271.5z"/>
	</g>
	<path stroke="#FFFFFF" stroke-width="0.25" d="M205.2,167.6V4.5"/>
	<path stroke="#FFFFFF" stroke-width="0.25" d="M254.5,167.6V4.5"/>
	<path stroke="#FFFFFF" stroke-width="0.25" d="M231.5,169.3V45.8"/>
	<g>
		<path fill="#FFFFFF" d="M235.9,16.1l-3.1,10.6c-0.2,0.6-0.3,1-0.3,1.1c0,0.1,0,0.1,0.1,0.1c0,0,0.1,0.1,0.1,0.1
			c0.1,0,0.1,0,0.2-0.1c0.1-0.1,0.4-0.5,0.7-1l0.3,0.2c-0.3,0.6-0.7,1-1,1.3s-0.7,0.5-1,0.5c-0.2,0-0.3-0.1-0.4-0.2
			c-0.1-0.1-0.2-0.3-0.2-0.6c0-0.3,0.1-0.8,0.3-1.4l0.3-1.1c-0.9,1.3-1.8,2.2-2.6,2.7c-0.5,0.3-1,0.5-1.5,0.5
			c-0.5,0-0.9-0.2-1.3-0.6c-0.4-0.4-0.5-0.9-0.5-1.6c0-0.9,0.3-1.8,0.9-2.8c0.6-1,1.4-1.8,2.4-2.4c0.8-0.5,1.5-0.7,2.2-0.7
			c0.3,0,0.6,0.1,0.9,0.2s0.5,0.3,0.7,0.6l0.8-2.9c0.1-0.3,0.2-0.6,0.2-0.8c0.1-0.2,0.1-0.4,0.1-0.6c0-0.1,0-0.2-0.1-0.3
			c-0.1-0.1-0.3-0.2-0.5-0.2c-0.1,0-0.4,0-0.7,0.1v-0.3L235.9,16.1z M232.4,22.4c0-0.4-0.1-0.7-0.4-0.9c-0.2-0.2-0.5-0.3-0.9-0.3
			c-0.8,0-1.7,0.6-2.6,1.8s-1.3,2.4-1.3,3.5c0,0.4,0.1,0.8,0.3,1c0.2,0.2,0.5,0.3,0.8,0.3c0.7,0,1.6-0.7,2.5-2
			C232,24.5,232.4,23.4,232.4,22.4z"/>
	</g>
	<g>
		<g>
			<path fill="#FFFFFF" d="M232.9,66.7l7.3-2.2V69L232.9,66.7z"/>
			<path fill="#FFFFFF" d="M240.1,66.7"/>
		</g>
		<path fill="none" stroke="#FFFFFF" stroke-width="0.5" stroke-linecap="square" d="M240.1,66.7h91.4"/>
	</g>
	<g>
		<g>
			<path fill="#FFFFFF" d="M457,66.7l-7.2-2.2V69L457,66.7z"/>
			<path fill="#FFFFFF" d="M449.7,66.7"/>
		</g>
		<path fill="none" stroke="#FFFFFF" stroke-width="0.5" stroke-linecap="square" d="M449.7,66.7h-98.8"/>
	</g>
	<g>
		<path fill="#FFFFFF" d="M344.2,64.1l-0.2,0.6h-1.3l-1.1,3.9c-0.5,1.7-0.9,3-1.4,3.9c-0.6,1.3-1.3,2.2-2,2.7
			c-0.5,0.4-1.1,0.6-1.6,0.6c-0.4,0-0.7-0.1-0.9-0.3c-0.2-0.1-0.3-0.3-0.3-0.6c0-0.2,0.1-0.4,0.2-0.5c0.1-0.1,0.3-0.2,0.6-0.2
			c0.2,0,0.3,0,0.4,0.1c0.1,0.1,0.2,0.2,0.2,0.3c0,0.1-0.1,0.2-0.2,0.4c-0.1,0.1-0.1,0.1-0.1,0.2c0,0.1,0,0.1,0.1,0.1
			c0.1,0,0.1,0.1,0.2,0.1c0.2,0,0.5-0.1,0.8-0.2c0.3-0.2,0.5-0.4,0.7-0.7c0.2-0.3,0.4-0.8,0.6-1.3c0.1-0.2,0.3-1.1,0.7-2.4l1.7-6
			h-1.7l0.1-0.6c0.5,0,0.9,0,1.1-0.1s0.4-0.2,0.6-0.4c0.2-0.2,0.4-0.5,0.6-1.1c0.3-0.7,0.6-1.2,1-1.6c0.4-0.5,0.9-0.9,1.3-1.2
			c0.5-0.3,0.9-0.4,1.3-0.4c0.4,0,0.8,0.1,1,0.3c0.3,0.2,0.4,0.5,0.4,0.7c0,0.2-0.1,0.4-0.2,0.5c-0.1,0.1-0.3,0.2-0.5,0.2
			c-0.2,0-0.3-0.1-0.4-0.2c-0.1-0.1-0.2-0.2-0.2-0.4c0-0.1,0-0.2,0.1-0.3c0.1-0.1,0.1-0.2,0.1-0.3c0-0.1,0-0.1-0.1-0.2
			c-0.1-0.1-0.2-0.1-0.3-0.1c-0.3,0-0.6,0.1-0.9,0.4c-0.4,0.3-0.7,0.8-1,1.5c-0.1,0.4-0.4,1.2-0.9,2.5L344.2,64.1z"/>
	</g>
	<path fill="none" stroke="#FFFFFF" stroke-width="0.25" d="M457,167.6V44.1"/>
	<path fill="none" stroke="#B2B2B2" d="M30.1,100.3H220l23.5,2.7l266,80.5"/>
	<path fill="none" stroke="#B2B2B2" d="M30.1,234.9H220l23.5-2.7l266-80.5"/>
	<g>
		<path fill="#FFFFFF" d="M133.3,154.9l-0.7,7.7c0,0.4-0.1,0.6-0.1,0.7c0,0.2,0,0.3,0.1,0.4c0.1,0.1,0.2,0.2,0.4,0.3
			s0.4,0.1,0.7,0.1l-0.1,0.2h-3.6l0.1-0.2h0.2c0.3,0,0.5-0.1,0.7-0.2c0.1-0.1,0.2-0.2,0.3-0.4c0.1-0.1,0.1-0.5,0.1-1l0.1-1.2h-2.7
			l-0.9,1.3c-0.2,0.3-0.3,0.5-0.4,0.6c-0.1,0.1-0.1,0.2-0.1,0.4c0,0.1,0.1,0.3,0.2,0.4c0.1,0.1,0.3,0.2,0.6,0.2l-0.1,0.2h-2.7
			l0.1-0.2c0.3,0,0.6-0.1,0.9-0.3c0.3-0.2,0.6-0.7,1.2-1.4l5.5-7.5L133.3,154.9L133.3,154.9z M132,157.1l-2.7,3.7h2.4L132,157.1z"/>
		<path fill="#FFFFFF" d="M137.1,158.1c0.2,0.2,0.4,0.5,0.5,0.7c0.1,0.2,0.2,0.6,0.4,1.3l0.6-0.9c0.2-0.2,0.4-0.4,0.6-0.6
			c0.2-0.2,0.4-0.3,0.6-0.4c0.1,0,0.2-0.1,0.4-0.1c0.2,0,0.4,0.1,0.5,0.2s0.2,0.2,0.2,0.4c0,0.2,0,0.3-0.1,0.4
			c-0.1,0.1-0.3,0.2-0.4,0.2c-0.1,0-0.2,0-0.3-0.1c-0.2-0.1-0.4-0.1-0.4-0.1c-0.1,0-0.2,0.1-0.4,0.2c-0.3,0.2-0.6,0.7-1,1.4l0.6,2.3
			c0.1,0.4,0.2,0.6,0.2,0.6s0.1,0.1,0.2,0.1c0.1,0,0.2-0.1,0.3-0.2c0.2-0.2,0.5-0.5,0.6-0.8l0.2,0.1c-0.3,0.5-0.6,1-1.1,1.3
			c-0.2,0.2-0.5,0.3-0.6,0.3c-0.3,0-0.5-0.1-0.6-0.4c-0.1-0.2-0.3-0.9-0.6-2.3c-0.7,1.2-1.3,2-1.7,2.4c-0.3,0.2-0.6,0.3-0.8,0.3
			c-0.2,0-0.4-0.1-0.5-0.2c-0.1-0.1-0.2-0.2-0.2-0.4c0-0.1,0.1-0.3,0.2-0.4s0.2-0.1,0.4-0.1c0.1,0,0.3,0.1,0.5,0.2
			c0.1,0.1,0.2,0.2,0.3,0.2c0.1,0,0.1,0,0.2-0.1c0.2-0.2,0.5-0.5,0.9-1.1c0.4-0.6,0.6-1,0.7-1.2c-0.3-1.1-0.4-1.7-0.4-1.8
			c-0.1-0.3-0.2-0.5-0.4-0.6s-0.4-0.2-0.7-0.2c-0.1,0-0.2,0-0.4,0v-0.2L137.1,158.1z"/>
		<path fill="#FFFFFF" d="M144.3,158.1l-1.4,4.8c-0.1,0.3-0.1,0.5-0.1,0.6c0,0.1,0,0.1,0.1,0.2c0,0,0.1,0.1,0.1,0.1
			c0.1,0,0.1,0,0.2-0.1c0.2-0.2,0.5-0.5,0.7-0.9l0.2,0.2c-0.3,0.5-0.6,0.9-1,1.2c-0.3,0.2-0.6,0.3-0.8,0.3c-0.2,0-0.3-0.1-0.4-0.2
			c-0.1-0.1-0.2-0.2-0.2-0.4c0-0.2,0.1-0.5,0.2-0.8l1-3.1c0.1-0.5,0.2-0.8,0.2-1c0-0.1,0-0.2-0.1-0.2c-0.1-0.1-0.2-0.1-0.3-0.1
			c-0.1,0-0.3,0-0.6,0.1v-0.2L144.3,158.1z M144,155.4c0.2,0,0.4,0.1,0.5,0.2c0.1,0.1,0.2,0.3,0.2,0.5c0,0.2-0.1,0.4-0.2,0.5
			s-0.3,0.2-0.5,0.2c-0.2,0-0.4-0.1-0.5-0.2c-0.1-0.1-0.2-0.3-0.2-0.5c0-0.2,0.1-0.4,0.2-0.5C143.7,155.5,143.8,155.4,144,155.4z"/>
		<path fill="#FFFFFF" d="M149.9,158.1l-0.4,2.1h-0.2c0-0.6-0.2-1.1-0.4-1.3s-0.5-0.4-0.9-0.4c-0.3,0-0.5,0.1-0.7,0.2
			c-0.2,0.2-0.2,0.3-0.2,0.6c0,0.1,0,0.3,0.1,0.4s0.2,0.3,0.4,0.6c0.6,0.6,1,1.1,1.1,1.5s0.3,0.6,0.3,0.9c0,0.5-0.2,0.9-0.6,1.3
			c-0.4,0.4-0.9,0.6-1.5,0.6c-0.3,0-0.7-0.1-1.1-0.2c-0.1-0.1-0.3-0.1-0.3-0.1c-0.2,0-0.4,0.1-0.5,0.3h-0.3l0.4-2.2h0.2
			c0,0.7,0.2,1.2,0.4,1.5s0.6,0.4,1.1,0.4c0.3,0,0.6-0.1,0.8-0.3c0.2-0.2,0.3-0.4,0.3-0.7c0-0.2,0-0.4-0.1-0.5
			c-0.1-0.3-0.4-0.7-0.8-1.1s-0.7-0.8-0.8-1.1s-0.2-0.5-0.2-0.7c0-0.4,0.2-0.8,0.5-1.1c0.3-0.3,0.7-0.5,1.2-0.5c0.1,0,0.3,0,0.4,0
			c0.1,0,0.2,0.1,0.4,0.2s0.4,0.1,0.5,0.1c0.2,0,0.4-0.1,0.5-0.3L149.9,158.1L149.9,158.1z"/>
	</g>
	<g>
		<path fill="#FFFFFF" d="M430.2,182.2l-1.1,3.7h1.2c0.5,0,1-0.1,1.2-0.3s0.5-0.5,0.8-1.1h0.2l-1,3.4h-0.3c0.1-0.3,0.1-0.5,0.1-0.7
			c0-0.3-0.1-0.5-0.3-0.6c-0.2-0.2-0.5-0.2-1-0.2H429l-0.8,2.9c-0.1,0.5-0.2,0.8-0.2,0.9c0,0.2,0.1,0.3,0.2,0.4
			c0.1,0.1,0.4,0.1,0.9,0.2L429,191h-3.6l0.1-0.2c0.4,0,0.6,0,0.7-0.1c0.2-0.1,0.3-0.2,0.4-0.3c0.1-0.2,0.3-0.6,0.4-1.2l1.6-5.6
			c0.1-0.5,0.2-0.8,0.2-1.1c0-0.1,0-0.2-0.1-0.3c-0.1-0.1-0.1-0.1-0.3-0.2s-0.3-0.1-0.7-0.1l0.1-0.2h7.2l-0.7,2.3h-0.2
			c0.1-0.3,0.1-0.5,0.1-0.7c0-0.3-0.1-0.5-0.3-0.7c-0.2-0.2-0.4-0.3-0.6-0.4c-0.2,0-0.6-0.1-1.2-0.1L430.2,182.2L430.2,182.2
			L430.2,182.2z"/>
		<path fill="#FFFFFF" d="M440.7,186.9c0,0.7-0.2,1.4-0.5,2s-0.9,1.2-1.5,1.6c-0.6,0.4-1.3,0.6-1.9,0.6c-0.6,0-1.1-0.2-1.5-0.6
			c-0.4-0.4-0.6-0.9-0.6-1.5c0-0.7,0.2-1.3,0.6-2c0.4-0.7,0.9-1.2,1.5-1.6c0.6-0.4,1.3-0.6,1.9-0.6c0.6,0,1.1,0.2,1.5,0.6
			C440.5,185.8,440.7,186.3,440.7,186.9z M439.6,186.5c0-0.4-0.1-0.7-0.3-1c-0.2-0.2-0.5-0.3-0.8-0.3c-0.7,0-1.3,0.5-1.9,1.4
			c-0.6,1-0.8,1.9-0.8,2.9c0,0.4,0.1,0.8,0.3,1s0.5,0.4,0.8,0.4c0.6,0,1.2-0.5,1.8-1.4S439.6,187.5,439.6,186.5z"/>
		<path fill="#FFFFFF" d="M446.6,189.5c-0.5,0.6-1,1-1.4,1.3c-0.5,0.3-1,0.4-1.5,0.4c-0.6,0-1.2-0.2-1.5-0.5
			c-0.4-0.4-0.5-0.9-0.5-1.5c0-0.7,0.2-1.4,0.6-2.1s0.9-1.2,1.6-1.6c0.7-0.4,1.3-0.6,1.9-0.6c0.5,0,0.9,0.1,1.1,0.3
			c0.2,0.2,0.4,0.5,0.4,0.8c0,0.3-0.1,0.5-0.3,0.7c-0.1,0.2-0.3,0.2-0.5,0.2c-0.1,0-0.3,0-0.4-0.1s-0.1-0.2-0.1-0.3
			c0-0.1,0-0.2,0.1-0.2c0-0.1,0.1-0.2,0.2-0.3c0.1-0.1,0.2-0.2,0.2-0.2c0,0,0-0.1,0-0.1c0-0.1,0-0.2-0.1-0.2
			c-0.1-0.1-0.3-0.1-0.6-0.1c-0.4,0-0.9,0.2-1.3,0.5s-0.8,0.8-1.1,1.3c-0.4,0.7-0.6,1.4-0.6,2.1c0,0.5,0.1,0.8,0.4,1.1
			c0.3,0.3,0.6,0.4,1.1,0.4c0.4,0,0.7-0.1,1-0.3c0.3-0.2,0.7-0.5,1.2-1L446.6,189.5z"/>
		<path fill="#FFFFFF" d="M454.4,184.9l-1.3,4.6l-0.2,0.6c0,0.1,0,0.1,0,0.1c0,0.1,0,0.1,0.1,0.2c0,0,0.1,0.1,0.1,0.1
			c0,0,0.1,0,0.2-0.1c0.1-0.1,0.3-0.4,0.5-0.8l0.2,0.2c-0.3,0.5-0.5,0.8-0.8,1c-0.3,0.2-0.5,0.3-0.8,0.3c-0.2,0-0.3,0-0.4-0.1
			c-0.1-0.1-0.1-0.2-0.1-0.4c0-0.2,0-0.5,0.1-0.9l0.1-0.5c-0.7,0.8-1.3,1.3-1.8,1.6c-0.4,0.2-0.8,0.3-1.2,0.3
			c-0.4,0-0.7-0.1-0.9-0.4c-0.3-0.3-0.4-0.6-0.4-1.1c0-0.7,0.2-1.5,0.7-2.3s1.1-1.4,1.8-1.9c0.6-0.4,1.1-0.6,1.6-0.6
			c0.3,0,0.6,0.1,0.8,0.2c0.2,0.1,0.4,0.4,0.5,0.7l0.2-0.7L454.4,184.9z M451.8,185.2c-0.3,0-0.7,0.1-1,0.4c-0.5,0.4-1,0.9-1.4,1.7
			c-0.4,0.7-0.6,1.4-0.6,2c0,0.3,0.1,0.5,0.3,0.7c0.2,0.2,0.4,0.3,0.6,0.3c0.6,0,1.2-0.4,1.8-1.1c0.8-1,1.2-1.9,1.2-2.9
			c0-0.4-0.1-0.7-0.2-0.8C452.4,185.3,452.1,185.2,451.8,185.2z"/>
		<path fill="#FFFFFF" d="M458.7,181.3l-2.4,8.2c-0.1,0.4-0.2,0.7-0.2,0.7c0,0.1,0,0.1,0.1,0.2c0,0,0.1,0.1,0.1,0.1
			c0.1,0,0.2,0,0.2-0.1c0.2-0.2,0.4-0.5,0.7-0.9l0.2,0.2c-0.4,0.6-0.8,1-1.1,1.3c-0.3,0.2-0.5,0.3-0.7,0.3c-0.2,0-0.3-0.1-0.4-0.2
			c-0.1-0.1-0.2-0.3-0.2-0.4c0-0.2,0.1-0.5,0.2-1l1.9-6.4c0.1-0.5,0.2-0.8,0.2-0.9c0-0.1,0-0.2-0.1-0.3c-0.1-0.1-0.2-0.1-0.4-0.1
			c-0.1,0-0.3,0-0.5,0v-0.2L458.7,181.3z"/>
		<path fill="#FFFFFF" d="M464.9,184.8l-0.5,1.6c0.5-0.6,0.9-1,1.3-1.2s0.8-0.4,1.2-0.4c0.4,0,0.8,0.2,1,0.5
			c0.3,0.3,0.4,0.7,0.4,1.3c0,1-0.4,2-1.2,3.1c-0.8,1-1.8,1.6-2.8,1.6c-0.2,0-0.4,0-0.6-0.1c-0.2,0-0.4-0.1-0.6-0.3l-0.5,1.8
			c-0.1,0.4-0.1,0.6-0.1,0.7c0,0.1,0,0.2,0.1,0.3c0.1,0.1,0.1,0.1,0.3,0.2c0.1,0,0.4,0.1,0.7,0.1l-0.1,0.2h-3.2l0.1-0.2
			c0.4,0,0.7-0.1,0.9-0.2c0.1-0.1,0.3-0.5,0.5-1.1l1.7-6c0.1-0.4,0.2-0.6,0.2-0.7c0-0.1,0-0.2-0.1-0.3c-0.1-0.1-0.2-0.1-0.3-0.1
			c-0.1,0-0.3,0-0.6,0v-0.2L464.9,184.8z M463.3,190.3c0.3,0.3,0.7,0.5,1.1,0.5c0.2,0,0.5-0.1,0.7-0.2s0.5-0.3,0.7-0.6
			c0.2-0.3,0.4-0.6,0.6-0.9c0.2-0.3,0.4-0.7,0.5-1.2c0.1-0.5,0.2-0.9,0.2-1.4c0-0.4-0.1-0.6-0.3-0.8c-0.2-0.2-0.4-0.3-0.6-0.3
			c-0.5,0-1,0.3-1.5,0.8s-0.8,1.2-1.1,2L463.3,190.3z"/>
		<path fill="#FFFFFF" d="M475.3,186.9c0,0.7-0.2,1.4-0.5,2c-0.4,0.7-0.9,1.2-1.5,1.6c-0.6,0.4-1.3,0.6-1.9,0.6
			c-0.6,0-1.1-0.2-1.5-0.6c-0.4-0.4-0.6-0.9-0.6-1.5c0-0.7,0.2-1.3,0.6-2c0.4-0.7,0.9-1.2,1.5-1.6c0.6-0.4,1.3-0.6,1.9-0.6
			c0.6,0,1.1,0.2,1.5,0.6C475.1,185.8,475.3,186.3,475.3,186.9z M474.2,186.5c0-0.4-0.1-0.7-0.3-1c-0.2-0.2-0.5-0.3-0.8-0.3
			c-0.7,0-1.3,0.5-1.9,1.4c-0.6,1-0.8,1.9-0.8,2.9c0,0.4,0.1,0.8,0.3,1c0.2,0.2,0.5,0.4,0.8,0.4c0.6,0,1.2-0.5,1.8-1.4
			C473.9,188.4,474.2,187.5,474.2,186.5z"/>
		<path fill="#FFFFFF" d="M479.2,184.8l-1.4,4.8c-0.1,0.3-0.1,0.5-0.1,0.6c0,0.1,0,0.1,0.1,0.2c0,0,0.1,0.1,0.1,0.1
			c0.1,0,0.1,0,0.2-0.1c0.2-0.2,0.5-0.5,0.7-0.9l0.2,0.2c-0.3,0.5-0.6,0.9-1,1.2c-0.3,0.2-0.6,0.3-0.8,0.3c-0.2,0-0.3-0.1-0.4-0.2
			c-0.1-0.1-0.2-0.2-0.2-0.4c0-0.2,0.1-0.5,0.2-0.8l1-3.1c0.1-0.5,0.2-0.8,0.2-1c0-0.1,0-0.2-0.1-0.2c-0.1-0.1-0.2-0.1-0.3-0.1
			c-0.1,0-0.3,0-0.6,0.1v-0.2L479.2,184.8z M478.9,182.1c0.2,0,0.4,0.1,0.5,0.2s0.2,0.3,0.2,0.5c0,0.2-0.1,0.4-0.2,0.5
			c-0.1,0.1-0.3,0.2-0.5,0.2c-0.2,0-0.4-0.1-0.5-0.2c-0.1-0.1-0.2-0.3-0.2-0.5c0-0.2,0.1-0.4,0.2-0.5S478.7,182.1,478.9,182.1z"/>
		<path fill="#FFFFFF" d="M482.8,184.8l-0.9,3.1c0.9-1.3,1.6-2.1,2.1-2.5c0.5-0.4,1-0.6,1.4-0.6c0.2,0,0.4,0.1,0.6,0.2
			s0.2,0.4,0.2,0.6c0,0.3-0.1,0.6-0.2,1.1l-0.9,2.9c-0.1,0.3-0.2,0.5-0.2,0.6c0,0.1,0,0.1,0,0.2c0,0,0.1,0.1,0.1,0.1
			c0,0,0.1,0,0.2-0.1c0.2-0.2,0.4-0.5,0.7-0.9l0.2,0.1c-0.4,0.6-0.8,1-1.1,1.3c-0.3,0.2-0.5,0.3-0.7,0.3c-0.2,0-0.3-0.1-0.4-0.2
			c-0.1-0.1-0.1-0.2-0.1-0.4c0-0.2,0.1-0.6,0.3-1.1l0.9-2.7c0.1-0.3,0.2-0.6,0.2-0.8c0-0.1,0-0.2-0.1-0.2c-0.1-0.1-0.1-0.1-0.2-0.1
			c-0.1,0-0.3,0.1-0.5,0.2c-0.4,0.2-0.8,0.5-1.1,1s-0.8,1.1-1.3,1.8c-0.2,0.4-0.4,0.8-0.6,1.3L481,191h-1l1.2-4.3
			c0.1-0.5,0.2-0.8,0.2-0.9c0-0.1,0-0.2-0.1-0.3c-0.1-0.1-0.2-0.1-0.3-0.1c-0.1,0-0.1,0-0.3,0l-0.3,0l-0.1-0.2L482.8,184.8z"/>
		<path fill="#FFFFFF" d="M490.5,183.1l-0.6,1.8h0.9l-0.1,0.4h-1l-1.2,4c-0.2,0.5-0.2,0.8-0.2,0.9c0,0.1,0,0.1,0,0.2
			c0,0,0.1,0.1,0.1,0.1c0.1,0,0.2-0.1,0.4-0.2c0.1-0.1,0.3-0.4,0.6-0.8l0.2,0.2c-0.4,0.6-0.8,1-1.1,1.3c-0.2,0.2-0.5,0.2-0.7,0.2
			c-0.2,0-0.3-0.1-0.5-0.2c-0.1-0.1-0.2-0.3-0.2-0.5c0-0.2,0.1-0.6,0.2-1.1l1.2-4h-1l0.1-0.3c0.5-0.1,0.9-0.3,1.3-0.6
			c0.3-0.3,0.7-0.7,1.2-1.4L490.5,183.1z"/>
	</g>
	<g>
		<path fill="#FFFFFF" d="M146.1,321.8h4.7c1.2,0,2.2,0.3,2.8,0.8c0.6,0.5,0.9,1.2,0.9,1.9c0,0.6-0.2,1.2-0.6,1.7
			c-0.4,0.6-1,1-1.7,1.4c-0.8,0.4-1.6,0.5-2.5,0.5c-0.6,0-1.3-0.1-2.1-0.3l-1,3.4c-0.2,0.7-0.3,1.2-0.3,1.4c0,0.2,0.1,0.3,0.2,0.4
			c0.2,0.1,0.5,0.2,1.1,0.2l-0.1,0.3h-4.6l0.1-0.3c0.6,0,1.1-0.1,1.3-0.3c0.2-0.2,0.5-0.8,0.8-1.8l2-6.8c0.2-0.8,0.4-1.4,0.4-1.6
			c0-0.2-0.1-0.4-0.2-0.5s-0.5-0.2-1.1-0.2L146.1,321.8z M147.7,327.3c0.7,0.2,1.2,0.3,1.6,0.3c0.6,0,1.2-0.1,1.7-0.4
			c0.5-0.3,0.9-0.7,1.2-1.2c0.3-0.5,0.4-1.1,0.4-1.6c0-0.6-0.2-1.1-0.5-1.4c-0.4-0.3-0.9-0.5-1.6-0.5c-0.4,0-0.9,0-1.4,0.1
			L147.7,327.3z"/>
		<path fill="#FFFFFF" d="M162.6,328.5c0,0.9-0.2,1.8-0.7,2.6c-0.5,0.9-1.1,1.5-1.9,2.1c-0.8,0.5-1.6,0.8-2.4,0.8
			c-0.8,0-1.5-0.3-2-0.8c-0.5-0.5-0.8-1.2-0.8-2c0-0.9,0.2-1.7,0.7-2.6c0.5-0.9,1.2-1.6,2-2.1s1.6-0.8,2.4-0.8s1.4,0.3,1.9,0.8
			C162.4,327,162.6,327.6,162.6,328.5z M161.2,327.8c0-0.5-0.1-1-0.4-1.3c-0.3-0.3-0.6-0.4-1-0.4c-0.9,0-1.7,0.6-2.4,1.9
			c-0.7,1.2-1.1,2.5-1.1,3.7c0,0.6,0.1,1,0.4,1.3c0.3,0.3,0.6,0.5,1.1,0.5c0.8,0,1.6-0.6,2.3-1.9
			C160.8,330.4,161.2,329.1,161.2,327.8z"/>
		<path fill="#FFFFFF" d="M169.8,325.7l-0.5,2.7H169c0-0.8-0.2-1.4-0.5-1.7c-0.3-0.4-0.7-0.5-1.1-0.5c-0.4,0-0.6,0.1-0.9,0.3
			c-0.2,0.2-0.3,0.4-0.3,0.7c0,0.2,0,0.4,0.1,0.6c0.1,0.2,0.3,0.4,0.5,0.7c0.7,0.8,1.2,1.5,1.4,1.9c0.2,0.4,0.3,0.8,0.3,1.2
			c0,0.6-0.3,1.2-0.8,1.6c-0.5,0.5-1.1,0.7-1.9,0.7c-0.4,0-0.9-0.1-1.4-0.3c-0.2-0.1-0.3-0.1-0.4-0.1c-0.3,0-0.5,0.1-0.6,0.4h-0.3
			l0.5-2.8h0.3c0,0.9,0.2,1.5,0.6,1.9s0.8,0.5,1.4,0.5c0.4,0,0.8-0.1,1.1-0.4s0.4-0.6,0.4-0.9c0-0.2,0-0.5-0.1-0.6
			c-0.2-0.4-0.5-0.8-1-1.5c-0.5-0.6-0.9-1.1-1-1.4s-0.2-0.6-0.2-0.9c0-0.6,0.2-1,0.6-1.4s0.9-0.6,1.6-0.6c0.2,0,0.4,0,0.5,0
			c0.1,0,0.3,0.1,0.6,0.2c0.3,0.1,0.5,0.2,0.6,0.2c0.2,0,0.5-0.1,0.6-0.4L169.8,325.7L169.8,325.7z"/>
		<path fill="#FFFFFF" d="M174.7,325.7l-1.9,6.2c-0.1,0.4-0.2,0.7-0.2,0.8c0,0.1,0,0.2,0.1,0.2s0.1,0.1,0.2,0.1c0.1,0,0.2,0,0.3-0.1
			c0.3-0.3,0.6-0.6,0.9-1.1l0.3,0.2c-0.4,0.6-0.8,1.1-1.3,1.5c-0.4,0.3-0.7,0.5-1.1,0.5c-0.2,0-0.4-0.1-0.6-0.2
			c-0.1-0.1-0.2-0.3-0.2-0.5c0-0.2,0.1-0.6,0.2-1.1l1.2-3.9c0.2-0.7,0.3-1.1,0.3-1.2c0-0.1,0-0.2-0.1-0.3s-0.2-0.1-0.4-0.1
			c-0.1,0-0.4,0-0.8,0.1v-0.3L174.7,325.7z M174.3,322.2c0.2,0,0.5,0.1,0.6,0.3c0.2,0.2,0.3,0.4,0.3,0.6c0,0.2-0.1,0.4-0.3,0.6
			s-0.4,0.3-0.6,0.3s-0.4-0.1-0.6-0.3s-0.3-0.4-0.3-0.6c0-0.2,0.1-0.5,0.3-0.6C173.9,322.3,174.1,322.2,174.3,322.2z"/>
		<path fill="#FFFFFF" d="M180.2,323.5l-0.7,2.4h1.2l-0.2,0.6h-1.2l-1.6,5.2c-0.2,0.6-0.3,1-0.3,1.1c0,0.1,0,0.2,0.1,0.2
			c0,0.1,0.1,0.1,0.1,0.1c0.1,0,0.3-0.1,0.5-0.3c0.1-0.1,0.4-0.5,0.8-1.1l0.3,0.2c-0.5,0.8-1,1.3-1.4,1.6c-0.3,0.2-0.6,0.3-0.9,0.3
			c-0.2,0-0.4-0.1-0.6-0.2c-0.2-0.2-0.2-0.4-0.2-0.6c0-0.3,0.1-0.8,0.3-1.4l1.5-5.1h-1.3l0.1-0.3c0.6-0.2,1.2-0.4,1.6-0.8
			s1-0.9,1.5-1.8L180.2,323.5z"/>
		<path fill="#FFFFFF" d="M184.7,325.7l-1.9,6.2c-0.1,0.4-0.2,0.7-0.2,0.8c0,0.1,0,0.2,0.1,0.2s0.1,0.1,0.2,0.1c0.1,0,0.2,0,0.3-0.1
			c0.3-0.3,0.6-0.6,0.9-1.1l0.3,0.2c-0.4,0.6-0.8,1.1-1.3,1.5c-0.4,0.3-0.7,0.5-1.1,0.5c-0.2,0-0.4-0.1-0.6-0.2
			c-0.1-0.1-0.2-0.3-0.2-0.5c0-0.2,0.1-0.6,0.2-1.1l1.2-3.9c0.2-0.7,0.3-1.1,0.3-1.2c0-0.1,0-0.2-0.1-0.3s-0.2-0.1-0.4-0.1
			c-0.1,0-0.4,0-0.8,0.1v-0.3L184.7,325.7z M184.3,322.2c0.2,0,0.5,0.1,0.6,0.3c0.2,0.2,0.3,0.4,0.3,0.6c0,0.2-0.1,0.4-0.3,0.6
			s-0.4,0.3-0.6,0.3s-0.4-0.1-0.6-0.3s-0.3-0.4-0.3-0.6c0-0.2,0.1-0.5,0.3-0.6C183.9,322.3,184.1,322.2,184.3,322.2z"/>
		<path fill="#FFFFFF" d="M185.7,326.2l2.5-0.5c0.2,0.4,0.3,0.9,0.4,1.3c0.2,0.7,0.3,1.5,0.4,2.4c0,0.5,0.1,1.4,0.2,2.9
			c0.7-0.8,1.2-1.3,1.3-1.5c0.8-1.1,1.2-1.7,1.3-1.9c0.2-0.3,0.3-0.6,0.4-0.8c0.1-0.2,0.1-0.3,0.1-0.5c0-0.2-0.1-0.3-0.4-0.5
			c-0.3-0.2-0.4-0.4-0.4-0.7c0-0.2,0.1-0.4,0.2-0.5s0.3-0.2,0.5-0.2c0.2,0,0.5,0.1,0.6,0.3s0.3,0.5,0.3,0.8s0,0.6-0.1,0.9
			c-0.2,0.4-0.4,1-0.9,1.6c-0.4,0.6-1.1,1.5-2,2.6c-0.1,0.1-0.8,0.8-2,2H188c-0.1-3.7-0.4-6.1-0.9-7c-0.1-0.3-0.4-0.5-0.7-0.5
			c-0.1,0-0.4,0-0.6,0.1L185.7,326.2z"/>
		<path fill="#FFFFFF" d="M195.4,330.3c0,0.3-0.1,0.5-0.1,0.7c0,0.5,0.2,1,0.6,1.3c0.4,0.4,0.8,0.6,1.4,0.6c0.4,0,0.8-0.1,1.2-0.3
			c0.4-0.2,1-0.6,1.8-1.2l0.2,0.3c-1.4,1.4-2.7,2.1-4,2.1c-0.9,0-1.5-0.3-1.9-0.8c-0.4-0.5-0.7-1.1-0.7-1.8c0-0.9,0.3-1.8,0.8-2.7
			c0.5-0.9,1.2-1.6,2-2.1c0.8-0.5,1.7-0.8,2.5-0.8c0.6,0,1.1,0.1,1.4,0.4c0.3,0.3,0.5,0.5,0.5,0.9c0,0.5-0.2,0.9-0.6,1.4
			c-0.5,0.6-1.3,1-2.3,1.4C197.5,330,196.6,330.2,195.4,330.3z M195.4,329.9c0.9-0.1,1.6-0.3,2.2-0.5c0.7-0.3,1.3-0.7,1.7-1.2
			c0.4-0.4,0.6-0.9,0.6-1.3c0-0.2-0.1-0.4-0.2-0.6s-0.4-0.2-0.7-0.2c-0.6,0-1.3,0.3-2,1C196.3,327.7,195.7,328.7,195.4,329.9z"/>
		<path fill="#FFFFFF" d="M209.2,337.4l-0.3,0.1c-0.7-1.3-1.2-2.5-1.5-3.5c-0.2-0.8-0.4-1.6-0.4-2.4c0-1.9,0.4-3.6,1.3-5.1
			c1.1-1.8,2.8-3.6,5.2-5.3l0.2,0.3c-1.1,0.8-2,1.7-2.7,2.7c-0.9,1.2-1.6,2.7-2.1,4.5s-0.8,3.4-0.8,4.8
			C208.2,334.6,208.5,335.9,209.2,337.4z"/>
		<path fill="#FFFFFF" d="M218.8,331.8c-0.6,0.7-1.2,1.3-1.8,1.6c-0.6,0.3-1.3,0.5-2,0.5c-0.8,0-1.5-0.2-1.9-0.7
			c-0.5-0.5-0.7-1.1-0.7-1.9c0-0.9,0.2-1.8,0.8-2.7s1.2-1.6,2-2.1c0.8-0.5,1.7-0.8,2.5-0.8c0.6,0,1.1,0.1,1.4,0.4
			c0.3,0.3,0.5,0.6,0.5,1c0,0.4-0.1,0.7-0.3,0.9c-0.2,0.2-0.4,0.3-0.6,0.3c-0.2,0-0.3-0.1-0.4-0.2s-0.2-0.3-0.2-0.4
			c0-0.1,0-0.2,0.1-0.3c0-0.1,0.1-0.2,0.3-0.3c0.1-0.1,0.2-0.2,0.2-0.3c0-0.1,0-0.1,0-0.2c0-0.1-0.1-0.2-0.2-0.3
			c-0.2-0.1-0.4-0.2-0.7-0.2c-0.6,0-1.1,0.2-1.7,0.6c-0.6,0.4-1,1-1.4,1.7c-0.5,0.9-0.7,1.8-0.7,2.7c0,0.6,0.2,1.1,0.5,1.4
			s0.8,0.5,1.4,0.5c0.5,0,0.9-0.1,1.3-0.3c0.4-0.2,0.9-0.6,1.5-1.2L218.8,331.8z"/>
		<path fill="#FFFFFF" d="M228.1,328.5c0,0.9-0.2,1.8-0.7,2.6c-0.5,0.9-1.1,1.5-1.9,2.1c-0.8,0.5-1.6,0.8-2.4,0.8
			c-0.8,0-1.5-0.3-2-0.8s-0.8-1.2-0.8-2c0-0.9,0.2-1.7,0.7-2.6c0.5-0.9,1.2-1.6,2-2.1s1.6-0.8,2.4-0.8s1.4,0.3,1.9,0.8
			C227.9,327,228.1,327.6,228.1,328.5z M226.7,327.8c0-0.5-0.1-1-0.4-1.3c-0.3-0.3-0.6-0.4-1-0.4c-0.9,0-1.7,0.6-2.4,1.9
			c-0.7,1.2-1.1,2.5-1.1,3.7c0,0.6,0.1,1,0.4,1.3c0.3,0.3,0.6,0.5,1.1,0.5c0.8,0,1.6-0.6,2.3-1.9
			C226.3,330.4,226.7,329.1,226.7,327.8z"/>
		<path fill="#FFFFFF" d="M232.7,325.7l-1.2,4c1.2-1.6,2.1-2.7,2.7-3.2c0.6-0.5,1.2-0.8,1.8-0.8c0.3,0,0.6,0.1,0.8,0.3
			s0.3,0.5,0.3,0.8c0,0.3-0.1,0.8-0.3,1.4l-1.2,3.7c-0.1,0.4-0.2,0.7-0.2,0.8c0,0.1,0,0.1,0.1,0.2c0,0.1,0.1,0.1,0.1,0.1
			c0.1,0,0.1,0,0.2-0.1c0.3-0.2,0.6-0.6,0.9-1.1l0.3,0.2c-0.5,0.8-1,1.3-1.5,1.6c-0.3,0.2-0.6,0.3-0.9,0.3c-0.2,0-0.4-0.1-0.5-0.2
			c-0.1-0.1-0.2-0.3-0.2-0.5c0-0.3,0.1-0.8,0.3-1.5l1.2-3.5c0.1-0.4,0.2-0.8,0.2-1c0-0.1,0-0.2-0.1-0.3c-0.1-0.1-0.2-0.1-0.3-0.1
			c-0.2,0-0.4,0.1-0.6,0.2c-0.5,0.3-1,0.7-1.5,1.3c-0.5,0.6-1.1,1.4-1.6,2.3c-0.3,0.5-0.6,1-0.7,1.6l-0.4,1.5h-1.3l1.6-5.5
			c0.2-0.7,0.3-1.1,0.3-1.2c0-0.1-0.1-0.2-0.2-0.3s-0.2-0.1-0.4-0.1c-0.1,0-0.2,0-0.4,0l-0.3,0.1l-0.1-0.3L232.7,325.7z"/>
		<path fill="#FFFFFF" d="M238.2,326.2l2.5-0.5c0.2,0.4,0.3,0.9,0.4,1.3c0.2,0.7,0.3,1.5,0.4,2.4c0,0.5,0.1,1.4,0.2,2.9
			c0.7-0.8,1.2-1.3,1.3-1.5c0.8-1.1,1.2-1.7,1.3-1.9c0.2-0.3,0.3-0.6,0.4-0.8c0.1-0.2,0.1-0.3,0.1-0.5c0-0.2-0.1-0.3-0.4-0.5
			c-0.3-0.2-0.4-0.4-0.4-0.7c0-0.2,0.1-0.4,0.2-0.5c0.1-0.1,0.3-0.2,0.5-0.2c0.2,0,0.5,0.1,0.6,0.3s0.3,0.5,0.3,0.8s0,0.6-0.1,0.9
			c-0.2,0.4-0.4,1-0.9,1.6c-0.4,0.6-1.1,1.5-2,2.6c-0.1,0.1-0.8,0.8-2,2h-0.3c-0.1-3.7-0.4-6.1-0.9-7c-0.1-0.3-0.4-0.5-0.7-0.5
			c-0.1,0-0.4,0-0.6,0.1L238.2,326.2z"/>
		<path fill="#FFFFFF" d="M247.8,330.3c0,0.3-0.1,0.5-0.1,0.7c0,0.5,0.2,1,0.6,1.3c0.4,0.4,0.8,0.6,1.4,0.6c0.4,0,0.8-0.1,1.2-0.3
			c0.4-0.2,1-0.6,1.8-1.2l0.2,0.3c-1.4,1.4-2.7,2.1-4,2.1c-0.9,0-1.5-0.3-1.9-0.8s-0.7-1.1-0.7-1.8c0-0.9,0.3-1.8,0.8-2.7
			c0.5-0.9,1.2-1.6,2-2.1c0.8-0.5,1.7-0.8,2.5-0.8c0.6,0,1.1,0.1,1.4,0.4s0.5,0.5,0.5,0.9c0,0.5-0.2,0.9-0.6,1.4
			c-0.5,0.6-1.3,1-2.3,1.4C250,330,249,330.2,247.8,330.3z M247.9,329.9c0.9-0.1,1.6-0.3,2.2-0.5c0.7-0.3,1.3-0.7,1.7-1.2
			c0.4-0.4,0.6-0.9,0.6-1.3c0-0.2-0.1-0.4-0.2-0.6c-0.2-0.2-0.4-0.2-0.7-0.2c-0.6,0-1.3,0.3-2,1
			C248.7,327.7,248.2,328.7,247.9,329.9z"/>
		<path fill="#FFFFFF" d="M254.7,326.2l3-0.5l-1.2,4.3c1-1.8,2-3,2.8-3.7c0.5-0.4,0.9-0.6,1.2-0.6c0.2,0,0.4,0.1,0.5,0.2
			c0.1,0.1,0.2,0.3,0.2,0.5c0,0.4-0.1,0.8-0.3,1.1c-0.1,0.3-0.3,0.4-0.6,0.4c-0.1,0-0.3,0-0.3-0.1s-0.2-0.2-0.2-0.4
			c0-0.1,0-0.2-0.1-0.2c0,0-0.1-0.1-0.2-0.1c-0.1,0-0.2,0-0.3,0.1c-0.2,0.1-0.4,0.3-0.7,0.7c-0.5,0.6-1,1.3-1.6,2.2
			c-0.2,0.4-0.5,0.8-0.6,1.3c-0.2,0.7-0.4,1.1-0.4,1.2l-0.3,1.1h-1.3l1.6-5.5c0.2-0.6,0.3-1.1,0.3-1.4c0-0.1,0-0.2-0.1-0.3
			c-0.1-0.1-0.3-0.1-0.4-0.1c-0.1,0-0.3,0-0.6,0.1L254.7,326.2z"/>
		<path fill="#FFFFFF" d="M269.5,326.2l-0.3,0.9h-1.5c0.1,0.3,0.2,0.6,0.2,0.9c0,0.8-0.3,1.5-1,2.1c-0.7,0.6-1.6,0.9-2.7,1
			c-0.6,0.2-1,0.4-1.3,0.7c-0.1,0.1-0.2,0.2-0.2,0.3c0,0.1,0.1,0.2,0.2,0.3c0.1,0.1,0.4,0.2,0.8,0.3l1.7,0.4
			c0.9,0.2,1.6,0.5,1.8,0.8c0.3,0.3,0.4,0.7,0.4,1.1c0,0.5-0.2,0.9-0.5,1.3c-0.4,0.4-0.9,0.7-1.6,0.9c-0.7,0.2-1.4,0.3-2.3,0.3
			c-0.7,0-1.4-0.1-2-0.3c-0.6-0.2-1-0.4-1.3-0.7c-0.3-0.3-0.4-0.6-0.4-0.9c0-0.3,0.1-0.5,0.3-0.8s0.4-0.5,0.6-0.7
			c0.2-0.1,0.6-0.4,1.4-0.8c-0.3-0.2-0.4-0.4-0.4-0.7c0-0.2,0.1-0.5,0.3-0.7c0.2-0.3,0.7-0.6,1.4-0.9c-0.6-0.1-1.1-0.4-1.5-0.8
			s-0.5-0.9-0.5-1.4c0-0.8,0.4-1.6,1.1-2.2c0.7-0.7,1.7-1,2.9-1c0.4,0,0.8,0,1.1,0.1c0.3,0.1,0.6,0.2,0.8,0.4L269.5,326.2
			L269.5,326.2z M262.2,333.6c-0.5,0.2-0.9,0.5-1.1,0.8c-0.3,0.3-0.4,0.7-0.4,1c0,0.4,0.2,0.7,0.5,1c0.5,0.4,1.2,0.5,2.2,0.5
			c0.8,0,1.6-0.1,2.2-0.4c0.6-0.3,0.9-0.7,0.9-1.1c0-0.2-0.1-0.4-0.3-0.7c-0.2-0.2-0.6-0.4-1.3-0.5
			C264.6,334.2,263.7,334,262.2,333.6z M266.5,327.6c0-0.5-0.1-0.8-0.4-1.1c-0.3-0.3-0.6-0.4-1.1-0.4c-0.7,0-1.3,0.3-1.7,1
			c-0.4,0.7-0.7,1.3-0.7,2.1c0,0.4,0.1,0.8,0.4,1.1c0.3,0.3,0.6,0.4,1,0.4c0.3,0,0.6-0.1,0.9-0.3c0.3-0.2,0.6-0.4,0.8-0.7
			c0.2-0.3,0.4-0.7,0.5-1.1C266.4,328.2,266.5,327.8,266.5,327.6z"/>
		<path fill="#FFFFFF" d="M273.5,325.7l-1.9,6.2c-0.1,0.4-0.2,0.7-0.2,0.8c0,0.1,0,0.2,0.1,0.2c0,0.1,0.1,0.1,0.2,0.1
			c0.1,0,0.2,0,0.3-0.1c0.3-0.3,0.6-0.6,0.9-1.1l0.3,0.2c-0.4,0.6-0.8,1.1-1.3,1.5c-0.4,0.3-0.7,0.5-1.1,0.5c-0.2,0-0.4-0.1-0.6-0.2
			s-0.2-0.3-0.2-0.5c0-0.2,0.1-0.6,0.2-1.1l1.2-3.9c0.2-0.7,0.3-1.1,0.3-1.2c0-0.1,0-0.2-0.1-0.3c-0.1-0.1-0.2-0.1-0.4-0.1
			c-0.1,0-0.4,0-0.8,0.1v-0.3L273.5,325.7z M273.1,322.2c0.2,0,0.5,0.1,0.6,0.3c0.2,0.2,0.3,0.4,0.3,0.6c0,0.2-0.1,0.4-0.3,0.6
			s-0.4,0.3-0.6,0.3s-0.4-0.1-0.6-0.3s-0.3-0.4-0.3-0.6c0-0.2,0.1-0.5,0.3-0.6C272.7,322.3,272.9,322.2,273.1,322.2z"/>
		<path fill="#FFFFFF" d="M278.1,325.7l-1.2,4c1.2-1.6,2.1-2.7,2.7-3.2c0.6-0.5,1.2-0.8,1.8-0.8c0.3,0,0.6,0.1,0.8,0.3
			c0.2,0.2,0.3,0.5,0.3,0.8c0,0.3-0.1,0.8-0.3,1.4l-1.2,3.7c-0.1,0.4-0.2,0.7-0.2,0.8c0,0.1,0,0.1,0.1,0.2c0,0.1,0.1,0.1,0.1,0.1
			c0.1,0,0.1,0,0.2-0.1c0.3-0.2,0.6-0.6,0.9-1.1l0.3,0.2c-0.5,0.8-1,1.3-1.5,1.6c-0.3,0.2-0.6,0.3-0.9,0.3c-0.2,0-0.4-0.1-0.5-0.2
			s-0.2-0.3-0.2-0.5c0-0.3,0.1-0.8,0.3-1.5l1.2-3.5c0.1-0.4,0.2-0.8,0.2-1c0-0.1,0-0.2-0.1-0.3c-0.1-0.1-0.2-0.1-0.3-0.1
			c-0.2,0-0.4,0.1-0.6,0.2c-0.5,0.3-1,0.7-1.5,1.3c-0.5,0.6-1.1,1.4-1.6,2.3c-0.3,0.5-0.6,1-0.7,1.6l-0.4,1.5h-1.3l1.6-5.5
			c0.2-0.7,0.3-1.1,0.3-1.2c0-0.1-0.1-0.2-0.2-0.3s-0.2-0.1-0.4-0.1c-0.1,0-0.2,0-0.4,0l-0.3,0.1l-0.1-0.3L278.1,325.7z"/>
		<path fill="#FFFFFF" d="M292.5,326.2l-0.3,0.9h-1.5c0.1,0.3,0.2,0.6,0.2,0.9c0,0.8-0.3,1.5-1,2.1c-0.7,0.6-1.6,0.9-2.7,1
			c-0.6,0.2-1,0.4-1.3,0.7c-0.1,0.1-0.2,0.2-0.2,0.3c0,0.1,0.1,0.2,0.2,0.3c0.1,0.1,0.4,0.2,0.8,0.3l1.7,0.4
			c0.9,0.2,1.6,0.5,1.8,0.8c0.3,0.3,0.4,0.7,0.4,1.1c0,0.5-0.2,0.9-0.5,1.3c-0.4,0.4-0.9,0.7-1.6,0.9c-0.7,0.2-1.4,0.3-2.3,0.3
			c-0.7,0-1.4-0.1-2-0.3c-0.6-0.2-1-0.4-1.3-0.7c-0.3-0.3-0.4-0.6-0.4-0.9c0-0.3,0.1-0.5,0.3-0.8s0.4-0.5,0.6-0.7
			c0.2-0.1,0.6-0.4,1.4-0.8c-0.3-0.2-0.4-0.4-0.4-0.7c0-0.2,0.1-0.5,0.3-0.7c0.2-0.3,0.7-0.6,1.4-0.9c-0.6-0.1-1.1-0.4-1.5-0.8
			s-0.5-0.9-0.5-1.4c0-0.8,0.4-1.6,1.1-2.2s1.7-1,2.9-1c0.4,0,0.8,0,1.1,0.1c0.3,0.1,0.6,0.2,0.8,0.4L292.5,326.2L292.5,326.2z
			 M285.2,333.6c-0.5,0.2-0.9,0.5-1.1,0.8c-0.3,0.3-0.4,0.7-0.4,1c0,0.4,0.2,0.7,0.5,1c0.5,0.4,1.2,0.5,2.2,0.5
			c0.8,0,1.6-0.1,2.2-0.4c0.6-0.3,0.9-0.7,0.9-1.1c0-0.2-0.1-0.4-0.3-0.7c-0.2-0.2-0.6-0.4-1.3-0.5
			C287.6,334.2,286.7,334,285.2,333.6z M289.5,327.6c0-0.5-0.1-0.8-0.4-1.1c-0.3-0.3-0.6-0.4-1.1-0.4c-0.7,0-1.3,0.3-1.7,1
			c-0.4,0.7-0.7,1.3-0.7,2.1c0,0.4,0.1,0.8,0.4,1.1c0.3,0.3,0.6,0.4,1,0.4c0.3,0,0.6-0.1,0.9-0.3c0.3-0.2,0.6-0.4,0.8-0.7
			c0.2-0.3,0.4-0.7,0.5-1.1C289.4,328.2,289.5,327.8,289.5,327.6z"/>
		<path fill="#FFFFFF" d="M294.7,321.3l0.3-0.2c0.7,1.3,1.2,2.5,1.5,3.5c0.2,0.8,0.4,1.6,0.4,2.4c0,1.9-0.4,3.6-1.3,5.1
			c-1.1,1.8-2.8,3.6-5.2,5.4l-0.2-0.3c1.1-0.8,2-1.7,2.7-2.7c0.9-1.2,1.6-2.7,2.1-4.5c0.5-1.8,0.8-3.4,0.8-4.8
			C295.7,324.1,295.4,322.8,294.7,321.3z"/>
		<path fill="#FFFFFF" d="M308.1,321.2l-3.1,10.5c-0.2,0.5-0.2,0.8-0.2,1c0,0.1,0,0.2,0.1,0.2c0.1,0.1,0.1,0.1,0.2,0.1
			c0.1,0,0.2,0,0.3-0.1c0.3-0.2,0.6-0.6,0.9-1.2l0.2,0.3c-0.5,0.8-1,1.3-1.5,1.6c-0.3,0.2-0.6,0.3-0.9,0.3c-0.2,0-0.4-0.1-0.5-0.2
			c-0.1-0.2-0.2-0.3-0.2-0.5c0-0.2,0.1-0.6,0.3-1.3l2.5-8.2c0.2-0.7,0.3-1.1,0.3-1.2c0-0.1-0.1-0.3-0.2-0.3
			c-0.1-0.1-0.3-0.1-0.5-0.1c-0.1,0-0.3,0-0.6,0.1v-0.3L308.1,321.2z"/>
		<path fill="#FFFFFF" d="M309.6,330.3c0,0.3-0.1,0.5-0.1,0.7c0,0.5,0.2,1,0.6,1.3c0.4,0.4,0.8,0.6,1.4,0.6c0.4,0,0.9-0.1,1.2-0.3
			c0.4-0.2,1-0.6,1.8-1.2l0.2,0.3c-1.4,1.4-2.7,2.1-4,2.1c-0.9,0-1.5-0.3-1.9-0.8c-0.4-0.5-0.7-1.1-0.7-1.8c0-0.9,0.3-1.8,0.8-2.7
			c0.5-0.9,1.2-1.6,2-2.1c0.8-0.5,1.7-0.8,2.5-0.8c0.6,0,1.1,0.1,1.4,0.4s0.5,0.5,0.5,0.9c0,0.5-0.2,0.9-0.6,1.4
			c-0.5,0.6-1.3,1-2.3,1.4C311.8,330,310.9,330.2,309.6,330.3z M309.7,329.9c0.9-0.1,1.6-0.3,2.2-0.5c0.7-0.3,1.3-0.7,1.7-1.2
			c0.4-0.4,0.6-0.9,0.6-1.3c0-0.2-0.1-0.4-0.2-0.6s-0.4-0.2-0.7-0.2c-0.6,0-1.3,0.3-2,1C310.5,327.7,310,328.7,309.7,329.9z"/>
		<path fill="#FFFFFF" d="M319.5,325.7l-1.2,4c1.2-1.6,2.1-2.7,2.7-3.2c0.6-0.5,1.2-0.8,1.8-0.8c0.3,0,0.6,0.1,0.8,0.3
			s0.3,0.5,0.3,0.8c0,0.3-0.1,0.8-0.3,1.4l-1.2,3.7c-0.1,0.4-0.2,0.7-0.2,0.8c0,0.1,0,0.1,0.1,0.2c0,0.1,0.1,0.1,0.1,0.1
			c0.1,0,0.1,0,0.2-0.1c0.3-0.2,0.6-0.6,0.9-1.1l0.3,0.2c-0.5,0.8-1,1.3-1.5,1.6c-0.3,0.2-0.6,0.3-0.9,0.3c-0.2,0-0.4-0.1-0.5-0.2
			s-0.2-0.3-0.2-0.5c0-0.3,0.1-0.8,0.3-1.5l1.2-3.5c0.1-0.4,0.2-0.8,0.2-1c0-0.1,0-0.2-0.1-0.3c-0.1-0.1-0.2-0.1-0.3-0.1
			c-0.2,0-0.4,0.1-0.6,0.2c-0.5,0.3-1,0.7-1.5,1.3c-0.5,0.6-1.1,1.4-1.6,2.3c-0.3,0.5-0.6,1-0.7,1.6l-0.4,1.5h-1.3l1.6-5.5
			c0.2-0.7,0.3-1.1,0.3-1.2c0-0.1-0.1-0.2-0.2-0.3s-0.2-0.1-0.4-0.1c-0.1,0-0.2,0-0.4,0l-0.3,0.1l-0.1-0.3L319.5,325.7z"/>
		<path fill="#FFFFFF" d="M331.1,325.7l-0.5,2.7h-0.3c0-0.8-0.2-1.4-0.5-1.7c-0.3-0.4-0.7-0.5-1.1-0.5c-0.4,0-0.6,0.1-0.9,0.3
			c-0.2,0.2-0.3,0.4-0.3,0.7c0,0.2,0,0.4,0.1,0.6c0.1,0.2,0.3,0.4,0.5,0.7c0.7,0.8,1.2,1.5,1.4,1.9s0.3,0.8,0.3,1.2
			c0,0.6-0.2,1.2-0.8,1.6c-0.5,0.5-1.1,0.7-1.9,0.7c-0.4,0-0.9-0.1-1.4-0.3c-0.2-0.1-0.3-0.1-0.4-0.1c-0.3,0-0.5,0.1-0.6,0.4h-0.3
			l0.5-2.8h0.3c0,0.9,0.2,1.5,0.6,1.9s0.8,0.5,1.4,0.5c0.4,0,0.8-0.1,1.1-0.4s0.4-0.6,0.4-0.9c0-0.2,0-0.5-0.1-0.6
			c-0.2-0.4-0.5-0.8-1-1.5c-0.5-0.6-0.9-1.1-1-1.4s-0.2-0.6-0.2-0.9c0-0.6,0.2-1,0.6-1.4s0.9-0.6,1.6-0.6c0.2,0,0.4,0,0.5,0
			c0.1,0,0.3,0.1,0.6,0.2c0.3,0.1,0.5,0.2,0.6,0.2c0.2,0,0.5-0.1,0.6-0.4L331.1,325.7L331.1,325.7L331.1,325.7z"/>
	</g>
</g>
</svg>
