<?xml version="1.0" encoding="utf-8"?>
<!-- Generator: Adobe Illustrator 18.0.0, SVG Export Plug-In . SVG Version: 6.00 Build 0)  -->
<!DOCTYPE svg PUBLIC "-//W3C//DTD SVG 1.1//EN" "http://www.w3.org/Graphics/SVG/1.1/DTD/svg11.dtd">
<svg version="1.1" id="Layer_1" xmlns="http://www.w3.org/2000/svg" xmlns:xlink="http://www.w3.org/1999/xlink" x="0px" y="0px"
	 viewBox="0 0 651.7 654.1" enable-background="new 0 0 651.7 654.1" xml:space="preserve">
<rect x="0.5" y="0.5" fill="#D1D3D4" width="651.7" height="654.1"/>
<g>
	<rect x="444" y="310.2" fill="#FFFFFF" stroke="#000000" stroke-width="4" stroke-miterlimit="10" width="30.4" height="40.6"/>
	<rect x="448.3" y="316.7" fill="none" width="25.7" height="27.6"/>
	
		<text transform="matrix(1 1.599984e-04 -1.600000e-04 1 448.3527 342.7399)" opacity="0.79" font-family="'Verlag-Book'" font-size="35.5438">B</text>
	<rect x="261.2" y="247" fill="#FFFFFF" stroke="#000000" stroke-width="6" stroke-miterlimit="10" width="57.3" height="76.7"/>
	<rect x="267" y="258.5" fill="none" width="48.5" height="52.2"/>
	
		<text transform="matrix(1 1.599984e-04 -1.600000e-04 1 266.9857 307.6442)" opacity="0.79" font-family="'Verlag-Book'" font-size="67.0928">A</text>
	<rect x="267" y="258.5" fill="none" width="48.5" height="52.2"/>
	
		<text transform="matrix(1 1.599984e-04 -1.600000e-04 1 266.9832 307.6423)" opacity="0.79" font-family="'Verlag-Book'" font-size="67.0928">B</text>
	<rect x="444" y="257.6" fill="#FFFFFF" stroke="#000000" stroke-width="4" stroke-miterlimit="10" width="30.4" height="40.6"/>
	<rect x="446.3" y="264.1" fill="none" width="25.7" height="27.6"/>
	
		<text transform="matrix(1 1.599984e-04 -1.600000e-04 1 446.3544 290.1285)" opacity="0.79" font-family="'Verlag-Book'" font-size="35.5438">A</text>
	<line fill="#FFFFFF" stroke="#000000" stroke-width="6" stroke-miterlimit="10" x1="260.7" y1="246.5" x2="229.6" y2="277.5"/>
	
		<rect x="206.1" y="302.1" transform="matrix(1.656572e-04 -1 1 1.656572e-04 -72.0066 560.818)" fill="#ED1C24" width="76.7" height="28.7"/>
	<rect x="258.8" y="278.1" fill="#00A651" width="28.7" height="76.7"/>
	<rect x="230.1" y="278.1" fill="none" stroke="#000000" stroke-width="6" stroke-miterlimit="10" width="57.3" height="76.7"/>
	<rect x="372.5" y="257.5" fill="#ED1C24" stroke="#000000" stroke-width="2" stroke-miterlimit="10" width="15.6" height="40.8"/>
	<rect x="372.5" y="310.1" fill="#00A651" stroke="#000000" stroke-width="2" stroke-miterlimit="10" width="15.6" height="40.8"/>
	<g>
		<polyline fill="#FFFFFF" points="178.5,340.4 186,332 193.3,328.1 199.4,329.4 206.5,333.4 210.5,337.9 212.5,340.3 208.9,344.6 
			203.6,349.7 198.7,352.4 192.6,352.4 188,350.3 182.2,345.3 178.5,340.8 		"/>
		<path d="M213.4,340.7c-1,1.7-2.1,3.2-3.3,4.7c-1.2,1.5-2.5,2.9-4,4.1c-1.4,1.3-3,2.4-4.8,3.3c-1.8,0.9-3.7,1.4-5.8,1.5
			c-2,0-4-0.6-5.8-1.4c-1.8-0.9-3.4-2-4.8-3.3c-1.4-1.3-2.8-2.7-4-4.1c-1.2-1.5-2.3-3-3.3-4.7l-0.3-0.4l0.3-0.4
			c1-1.7,2.1-3.2,3.3-4.7c1.2-1.5,2.5-2.9,4-4.1c1.4-1.3,3-2.4,4.8-3.3c1.8-0.9,3.7-1.4,5.8-1.5c2,0,4,0.6,5.8,1.4
			c1.8,0.9,3.4,2,4.8,3.3c1.4,1.3,2.8,2.7,4,4.1c1.2,1.5,2.3,3,3.3,4.7l0.3,0.4L213.4,340.7z M211.5,340.3c-2.3-2.5-4.8-5-7.4-7
			c-0.3-0.3-0.7-0.5-1-0.7c-0.4-0.2-0.7-0.5-1.1-0.7c-0.7-0.4-1.4-0.8-2.2-1.1c-0.7-0.3-1.5-0.6-2.2-0.8c-0.4-0.1-0.7-0.2-1.1-0.2
			c-0.2,0-0.4,0-0.5,0c-0.1,0-0.2,0-0.3,0l-0.3,0l-0.2,0l-0.3,0c-0.2,0-0.4,0-0.5,0c-0.4,0-0.7,0.1-1.1,0.2
			c-0.7,0.2-1.4,0.5-2.2,0.8c-0.7,0.3-1.5,0.7-2.2,1.2c-0.4,0.2-0.7,0.5-1,0.7c-0.4,0.2-0.7,0.5-1,0.8c-2.7,2.1-4.9,4.3-7.4,7
			c0,0,2,2.3,3.2,3.6c1.3,1.3,2.6,2.5,3.9,3.6c1.4,1.1,2.8,2,4.3,2.7c1.5,0.7,3,1.1,4.5,1.1c1.5,0,3-0.4,4.5-1.1
			c0.7-0.3,1.5-0.7,2.2-1.2c0.7-0.5,1.4-1,2.1-1.5c0.7-0.5,1.3-1.1,2-1.7c0.7-0.6,1.3-1.2,1.9-1.9
			C209.4,342.7,210.4,341.5,211.5,340.3z"/>
		<circle cx="195.5" cy="340.3" r="8"/>
	</g>
	<g>
		<g>
			
				<line fill="none" stroke="#000000" stroke-width="5" stroke-miterlimit="10" stroke-dasharray="3,3" x1="212.5" y1="332.3" x2="245.2" y2="311.9"/>
			<g>
				<polygon points="247.3,319.4 254.3,306.2 239.4,306.7 				"/>
			</g>
		</g>
	</g>
	<g>
		<g>
			<line fill="none" stroke="#000000" stroke-width="5" stroke-miterlimit="10" x1="394.2" y1="277.9" x2="423.6" y2="277.9"/>
			<g>
				<polygon points="421.4,285.4 434.4,277.9 421.4,270.4 				"/>
			</g>
		</g>
	</g>
	<g>
		<g>
			<line fill="none" stroke="#000000" stroke-width="5" stroke-miterlimit="10" x1="394.2" y1="330.5" x2="423.6" y2="330.5"/>
			<g>
				<polygon points="421.4,338 434.4,330.5 421.4,323 				"/>
			</g>
		</g>
	</g>
</g>
</svg>
