<svg xmlns="http://www.w3.org/2000/svg" viewBox="0 0 2160 2160">
<rect x="-16.4" y="-11.9" fill="#0D222D" width="2192.7" height="2183.8"/>
<g>
	<g>
		<path fill="#C9CACA" d="M1054,1077.1V1003l-31.9,48.5h-0.6l-31.6-48v73.6h-24.5V963.6h26.9l29.8,48l29.8-48h26.9v113.5H1054z"/>
		<path fill="#C9CACA" d="M1191.4,1077.1l-10.4-25.5h-48l-10.4,25.5h-25.4l48.6-114.3h23l48.6,114.3H1191.4z M1157,992.7l-15.1,36.8
			h30.2L1157,992.7z"/>
		<path fill="#C9CACA" d="M1304.8,1077.1l-24.3-36.3h-19.6v36.3h-25V963.6h51.9c26.7,0,42.8,14.1,42.8,37.5v0.3
			c0,18.3-9.9,29.8-24.3,35.2l27.7,40.5H1304.8z M1305.3,1002.3c0-10.7-7.5-16.2-19.6-16.2h-24.8v32.6h25.3c12.2,0,19.1-6.5,19.1-16
			V1002.3z"/>
		<path fill="#C9CACA" d="M1406.1,986.6v90.5h-25v-90.5h-34.5v-23h94v23H1406.1z"/>
		<path fill="#C9CACA" d="M1530.4,1077.1l-10.4-25.5h-48l-10.4,25.5h-25.5l48.6-114.3h23l48.6,114.3H1530.4z M1496,992.7l-15.1,36.8
			h30.2L1496,992.7z"/>
	</g>
	<path fill="#567F3F" d="M768.7,1070.7l-25.1,38.2c31.9,3.2,64.1-10.8,83-39l-30.2-19.6C789.5,1060.3,780,1067.5,768.7,1070.7z"/>
	<path fill="#B31F2E" d="M775.4,909.5c7.9,1.7,16,4.3,23.3,7.6l-12.9,19.7l-20.5,31.1c6,1.7,11.4,3.9,16.5,7.3
		c5.3,3.5,9.9,7.8,13.5,12.6c6,8,9.6,17.5,10.6,27.3c1.1,11.7-1.8,23.7-8.7,34.3c-0.2,0.3-0.4,0.7-0.7,1l30.2,19.6
		c0.2-0.3,0.4-0.5,0.6-0.8c18.9-28.7,19-64.3,3.5-92.4c-4-7.3-8.8-13.9-15.3-20.2l13-19.7l20.2-30.7c-3.7-3.3-9.2-7.3-14.3-10.7
		c-5-3.3-10-6.1-15.2-8.7c-7.3-3.7-14.8-6.7-22.4-9c-61.8-19.2-131.5,3.6-168.9,60.4c-0.4,0.7-0.8,1.3-1.3,2l30.5,19.8
		c0.4-0.6,0.8-1.2,1.1-1.8C684.4,918.2,731.4,900.3,775.4,909.5z"/>
	<path fill="#567F3F" d="M639,1116.8l21.1-32.1c-25.3-36.1-27.9-85.4-2.9-124.9L626.6,940C590.7,996.5,598,1068.6,639,1116.8z"/>
	<path fill="#2583B3" d="M707.7,990.5c7.1-10.8,17.8-17.9,28.7-21.8l24.9-37.9c-31.3-2.7-64.7,11.2-83.7,40
		c-0.4,0.6-0.7,1.1-1.1,1.7l30.2,19.6C707,991.5,707.3,991,707.7,990.5z"/>
	<path fill="#2583B3" d="M865.7,923.2l-21.1,32.1c25.6,36.7,28,86.9,1.9,126.6c-0.2,0.2-0.3,0.5-0.5,0.7l30.5,19.8
		c0.1-0.2,0.2-0.3,0.4-0.5C914.2,1045.1,907.9,972.5,865.7,923.2z"/>
	<path fill="#D9BC2A" d="M729.7,1130.3c-8-1.6-15.4-3.8-23.5-7.6l12.9-19.7l20.5-31.2c-5.2-1-11.3-3.7-16.6-7.2
		c-5.1-3.4-9.4-7.4-13-12.1c-6-7.9-9.7-17.2-10.7-26.8c-1.2-11.3,1-23.3,7.4-33.7l-30.2-19.6c-17.9,28.5-17.8,63.4-2.4,91
		c4,7.3,9.4,14.2,15.1,20l-12.9,19.7l-20.2,30.7c4.6,3.8,9.4,7.4,14.3,10.7c5.1,3.4,10.4,6.4,15.8,9.1c7.3,3.7,14.9,6.7,22.6,9
		c61.5,18.9,130.4-3.9,167.7-60.2l-30.5-19.8C819.9,1121.7,773.3,1139.2,729.7,1130.3z"/>
</g>
</svg>
