<?xml version="1.0" encoding="utf-8"?>
<!-- Generator: Adobe Illustrator 18.0.0, SVG Export Plug-In . SVG Version: 6.00 Build 0)  -->
<!DOCTYPE svg PUBLIC "-//W3C//DTD SVG 1.1//EN" "http://www.w3.org/Graphics/SVG/1.1/DTD/svg11.dtd">
<svg version="1.1" id="Layer_1" xmlns="http://www.w3.org/2000/svg" xmlns:xlink="http://www.w3.org/1999/xlink" x="0px" y="0px"
	 viewBox="0 236 612 320" enable-background="new 0 236 612 320" xml:space="preserve">
<rect x="-4.6" y="86.6" fill="#0D222D" width="621.3" height="618.7"/>
<g>
	<g>
		<path fill="#C9CACA" d="M298.6,395.2v-21l-9,13.7h-0.2l-9-13.6v20.9h-6.9V363h7.6l8.4,13.6L298,363h7.6v32.2H298.6z"/>
		<path fill="#C9CACA" d="M337.6,395.2l-2.9-7.2H321l-2.9,7.2h-7.2l13.8-32.4h6.5l13.8,32.4H337.6z M327.8,371.3l-4.3,10.4h8.6
			L327.8,371.3z"/>
		<path fill="#C9CACA" d="M369.7,395.2l-6.9-10.3h-5.6v10.3h-7.1V363h14.7c7.6,0,12.1,4,12.1,10.6v0.1c0,5.2-2.8,8.4-6.9,10
			l7.8,11.5H369.7z M369.8,374c0-3-2.1-4.6-5.6-4.6h-7v9.2h7.2c3.5,0,5.4-1.8,5.4-4.5V374z"/>
		<path fill="#C9CACA" d="M398.4,369.5v25.6h-7.1v-25.6h-9.8V363h26.6v6.5H398.4z"/>
		<path fill="#C9CACA" d="M433.6,395.2l-2.9-7.2h-13.6l-2.9,7.2h-7.2l13.8-32.4h6.5l13.8,32.4H433.6z M423.9,371.3l-4.3,10.4h8.6
			L423.9,371.3z"/>
	</g>
	<path fill="#567F3F" d="M217.8,393.4l-7.1,10.8c9,0.9,18.2-3.1,23.5-11l-8.6-5.6C223.7,390.4,221,392.5,217.8,393.4z"/>
	<path fill="#B31F2E" d="M219.7,347.7c2.2,0.5,4.5,1.2,6.6,2.2l-3.7,5.6l-5.8,8.8c1.7,0.5,3.2,1.1,4.7,2.1c1.5,1,2.8,2.2,3.8,3.6
		c1.7,2.3,2.7,5,3,7.7c0.3,3.3-0.5,6.7-2.5,9.7c-0.1,0.1-0.1,0.2-0.2,0.3l8.6,5.6c0.1-0.1,0.1-0.1,0.2-0.2c5.4-8.1,5.4-18.2,1-26.2
		c-1.1-2.1-2.5-3.9-4.3-5.7l3.7-5.6l5.7-8.7c-1-0.9-2.6-2.1-4.1-3c-1.4-0.9-2.8-1.7-4.3-2.5c-2.1-1-4.2-1.9-6.3-2.5
		c-17.5-5.4-37.3,1-47.9,17.1c-0.1,0.2-0.2,0.4-0.4,0.6l8.6,5.6c0.1-0.2,0.2-0.3,0.3-0.5C193.9,350.2,207.2,345.1,219.7,347.7z"/>
	<path fill="#567F3F" d="M181.1,406.4l6-9.1c-7.2-10.2-7.9-24.2-0.8-35.4l-8.7-5.6C167.4,372.3,169.4,392.8,181.1,406.4z"/>
	<path fill="#2583B3" d="M200.5,370.6c2-3.1,5-5.1,8.1-6.2l7.1-10.7c-8.9-0.8-18.3,3.2-23.7,11.3c-0.1,0.2-0.2,0.3-0.3,0.5l8.6,5.6
		C200.3,370.9,200.4,370.8,200.5,370.6z"/>
	<path fill="#2583B3" d="M245.3,351.6l-6,9.1c7.3,10.4,7.9,24.6,0.5,35.9c-0.1,0.1-0.1,0.1-0.1,0.2l8.6,5.6c0-0.1,0.1-0.1,0.1-0.1
		C259,386.1,257.2,365.5,245.3,351.6z"/>
	<path fill="#D9BC2A" d="M206.7,410.3c-2.3-0.5-4.4-1.1-6.7-2.2l3.7-5.6l5.8-8.8c-1.5-0.3-3.2-1-4.7-2c-1.4-1-2.7-2.1-3.7-3.4
		c-1.7-2.2-2.7-4.9-3-7.6c-0.3-3.2,0.3-6.6,2.1-9.5l-8.6-5.6c-5.1,8.1-5,18-0.7,25.8c1.1,2.1,2.7,4,4.3,5.7l-3.7,5.6l-5.7,8.7
		c1.3,1.1,2.7,2.1,4.1,3c1.4,1,2.9,1.8,4.5,2.6c2.1,1,4.2,1.9,6.4,2.5c17.4,5.4,36.9-1.1,47.5-17.1l-8.6-5.6
		C232.3,407.8,219.1,412.8,206.7,410.3z"/>
</g>
</svg>
