<?xml version="1.0" encoding="utf-8"?>
<!-- Generator: Adobe Illustrator 18.0.0, SVG Export Plug-In . SVG Version: 6.00 Build 0)  -->
<!DOCTYPE svg PUBLIC "-//W3C//DTD SVG 1.1//EN" "http://www.w3.org/Graphics/SVG/1.1/DTD/svg11.dtd">
<svg version="1.1" id="Layer_1" xmlns="http://www.w3.org/2000/svg" xmlns:xlink="http://www.w3.org/1999/xlink" x="0px" y="0px"
	 viewBox="0 168 612 456" enable-background="new 0 168 612 456" xml:space="preserve">
<rect x="-29.3" y="152.5" fill="#B21F2E" width="671.5" height="498.1"/>
<g>
	<path fill="#C8C9CA" d="M107.7,315.8l-2.2-5.4H95.2l-2.2,5.4h-5.4l10.4-24.5h4.9l10.4,24.5H107.7z M100.3,297.7l-3.2,7.9h6.5
		L100.3,297.7z"/>
	<path fill="#C8C9CA" d="M139,315.8h-11.6v-24.4h11.3c5,0,8,2.5,8,6.3v0.1c0,2.8-1.4,4.3-3.2,5.3c2.8,1.1,4.5,2.7,4.5,6v0.1
		C148.1,313.6,144.5,315.8,139,315.8z M141.4,298.7c0-1.6-1.2-2.5-3.5-2.5h-5.3v5.1h4.9C140,301.3,141.4,300.5,141.4,298.7
		L141.4,298.7L141.4,298.7z M142.8,308.4c0-1.6-1.2-2.6-4-2.6h-6.2v5.4h6.4C141.4,311.1,142.8,310.3,142.8,308.4L142.8,308.4z"/>
	<path fill="#C8C9CA" d="M174.4,316.2c-7.2,0-12.5-5.5-12.5-12.5v-0.1c0-6.9,5.2-12.6,12.7-12.6c4.6,0,7.4,1.5,9.6,3.7l-3.4,3.9
		c-1.9-1.7-3.8-2.8-6.2-2.8c-4.1,0-7.1,3.4-7.1,7.6v0.1c0,4.2,2.9,7.7,7.1,7.7c2.8,0,4.5-1.1,6.4-2.8l3.4,3.4
		C181.9,314.6,179.1,316.2,174.4,316.2z"/>
	<path fill="#C8C9CA" d="M208.5,315.8h-9.5v-24.4h9.5c7.6,0,12.9,5.3,12.9,12.1v0.1C221.5,310.5,216.2,315.8,208.5,315.8z
		 M215.9,303.6c0-4.3-3-7.4-7.4-7.4h-4.1V311h4.1C212.9,311,215.9,308,215.9,303.6L215.9,303.6z"/>
	<path fill="#C8C9CA" d="M236.7,315.8v-24.4H255v4.8h-13v4.9h11.5v4.8H242v5.1h13.2v4.8L236.7,315.8L236.7,315.8z"/>
	<path fill="#C8C9CA" d="M275.8,296.3v5.2h11.6v4.9h-11.6v9.4h-5.4v-24.4H289v4.9L275.8,296.3L275.8,296.3z"/>
	<path fill="#C8C9CA" d="M315.4,316.2c-7.6,0-12.8-5.3-12.8-12.5v-0.1c0-6.9,5.4-12.6,12.8-12.6c4.4,0,7,1.2,9.6,3.4l-3.4,4.1
		c-1.9-1.6-3.5-2.5-6.4-2.5c-3.9,0-7,3.4-7,7.6v0.1c0,4.5,3.1,7.7,7.4,7.7c2,0,3.7-0.5,5.1-1.4v-3.5h-5.4v-4.6h10.6v10.6
		C323.3,314.5,319.8,316.2,315.4,316.2z"/>
	<path fill="#C8C9CA" d="M356.6,315.8V306h-9.9v9.8h-5.4v-24.4h5.4v9.6h9.9v-9.6h5.4v24.4H356.6z"/>
	<path fill="#C8C9CA" d="M378.4,315.8v-24.4h5.4v24.4H378.4z"/>
	<path fill="#C8C9CA" d="M405.8,316.2c-3.8,0-6.3-1.7-7.9-3.7l3.4-3.7c1.4,1.5,2.8,2.4,4.5,2.4c2,0,3.3-1.2,3.3-4v-15.7h5.5v15.9
		C414.5,313.3,411,316.2,405.8,316.2z"/>
	<path fill="#C8C9CA" d="M446.1,315.8l-7.6-10.4l-2.8,2.9v7.4h-5.4v-24.4h5.4v10.6l9.9-10.6h6.5l-9.9,10.3l10.4,14H446.1z"/>
	<path fill="#C8C9CA" d="M466.1,315.8v-24.4h5.4v19.5h12.1v4.9H466.1z"/>
	<path fill="#C8C9CA" d="M517.1,315.8V300l-6.8,10.4h-0.1l-6.8-10.3v15.8h-5.3v-24.4h5.8l6.4,10.3l6.4-10.3h5.8v24.4L517.1,315.8
		L517.1,315.8z"/>
	<path fill="#C8C9CA" d="M90.4,357.5l-11.8-15.5v15.5h-5.3v-24.4h4.9l11.4,15v-15h5.3v24.4H90.4z"/>
	<path fill="#C8C9CA" d="M123,358c-7.5,0-12.9-5.6-12.9-12.5v-0.1c0-6.9,5.4-12.6,13-12.6c7.5,0,12.9,5.6,12.9,12.5v0.1
		C136,352.3,130.6,358,123,358z M130.4,345.4c0-4.2-3.1-7.6-7.4-7.6c-4.3,0-7.3,3.4-7.3,7.6v0.1c0,4.2,3.1,7.6,7.4,7.6
		S130.4,349.6,130.4,345.4L130.4,345.4z"/>
	<path fill="#C8C9CA" d="M160.6,350.2h-4.1v7.3h-5.4v-24.4h9.9c5.8,0,9.3,3.4,9.3,8.4v0.1C170.5,347.3,166.1,350.2,160.6,350.2z
		 M165,341.7c0-2.4-1.7-3.7-4.3-3.7h-4.1v7.4h4.2C163.5,345.5,165.1,343.9,165,341.7L165,341.7L165,341.7z"/>
	<path fill="#C8C9CA" d="M206.6,358.3l-2.7-2.4c-2,1.3-4.5,2.1-7.2,2.1c-7.5,0-12.9-5.6-12.9-12.5v-0.1c0-6.9,5.4-12.6,13-12.6
		s12.9,5.6,12.9,12.5v0.1c0,2.5-0.8,5-2.2,7l2.5,2.1L206.6,358.3z M204,345.4c0-4.2-3.1-7.6-7.4-7.6c-4.3,0-7.3,3.4-7.3,7.6v0.1
		c0,4.2,3.1,7.6,7.4,7.6c1.2,0,2.3-0.3,3.2-0.7l-4-3.4l3.4-3.8l4,3.6C203.8,347.8,204,346.7,204,345.4L204,345.4z"/>
	<path fill="#C8C9CA" d="M239.6,357.5l-5.2-7.8h-4.2v7.8h-5.4v-24.4H236c5.7,0,9.2,3,9.2,8v0.1c0,3.9-2.1,6.4-5.2,7.6l5.9,8.7
		L239.6,357.5L239.6,357.5z M239.7,341.5c0-2.3-1.6-3.5-4.2-3.5h-5.3v7h5.4C238.2,345,239.7,343.6,239.7,341.5L239.7,341.5
		L239.7,341.5z"/>
	<path fill="#C8C9CA" d="M269.1,357.9c-3.7,0-7.4-1.3-10.3-3.9l3.1-3.8c2.2,1.8,4.5,3,7.3,3c2.2,0,3.5-0.9,3.5-2.3v-0.1
		c0-1.4-0.9-2-4.9-3.1c-4.9-1.2-8.1-2.6-8.1-7.4v-0.1c0-4.4,3.5-7.4,8.5-7.4c3.5,0,6.6,1.1,9.1,3.1l-2.8,4c-2.2-1.5-4.3-2.4-6.3-2.4
		c-2,0-3.1,0.9-3.1,2.1v0.1c0,1.6,1.1,2.1,5.3,3.2c4.9,1.3,7.7,3.1,7.7,7.3v0.1C278,355.2,274.3,357.9,269.1,357.9z"/>
	<path fill="#C8C9CA" d="M304.1,338.2v19.4h-5.4v-19.4h-7.4v-4.9h20.2v4.9H304.1z"/>
	<path fill="#C8C9CA" d="M336.2,357.9c-6.5,0-10.5-3.7-10.5-10.8v-13.9h5.4V347c0,4,2,6,5.3,6c3.3,0,5.3-2,5.3-5.8v-13.9h5.4V347
		C346.9,354.3,342.7,357.9,336.2,357.9z"/>
	<path fill="#C8C9CA" d="M375.2,357.7h-4.7l-9.9-24.5h5.9l6.4,17.1l6.4-17.1h5.8L375.2,357.7z"/>
	<path fill="#C8C9CA" d="M426,357.7h-4.7l-5.5-15.9l-5.5,15.9h-4.7l-8.3-24.5h5.7l5.1,16.5l5.4-16.5h4.6l5.4,16.5l5.1-16.5h5.6
		L426,357.7z"/>
	<path fill="#C8C9CA" d="M463.9,357.5l-5.4-8.3l-5.5,8.3h-6.1l8.5-12.4l-8.1-11.9h6.2l5.1,7.9l5.1-7.9h6.1l-8.1,11.9l8.5,12.5
		L463.9,357.5L463.9,357.5z"/>
	<path fill="#C8C9CA" d="M496.8,347.8v9.7h-5.4v-9.6l-9.3-14.7h6.2l5.8,9.8l5.9-9.8h6.1L496.8,347.8z"/>
	<path fill="#C8C9CA" d="M519.2,357.5v-4.1l13.4-15.6h-13v-4.7h19.8v4.1l-13.4,15.6h13.4v4.7H519.2z"/>
	<path fill="#C8C9CA" d="M130.6,399.3v-2c-1.3,1.4-3.1,2.4-5.7,2.4c-3.5,0-6.4-2-6.4-5.7v-0.1c0-4.1,3.1-5.9,7.5-5.9
		c1.9,0,3.2,0.3,4.5,0.8v-0.3c0-2.2-1.4-3.4-4-3.4c-2,0-3.4,0.4-5.1,1l-1.3-4c2-0.9,4.1-1.5,7.2-1.5c5.8,0,8.3,3,8.3,8v10.8
		L130.6,399.3L130.6,399.3z M130.7,391.8c-0.9-0.4-2.1-0.7-3.4-0.7c-2.3,0-3.7,0.9-3.7,2.6v0.1c0,1.4,1.2,2.3,2.9,2.3
		c2.5,0,4.1-1.4,4.1-3.3V391.8z"/>
	<path fill="#C8C9CA" d="M161.8,399.6c-2.8,0-4.5-1.3-5.8-2.8v2.4h-5.3v-25.4h5.3v9.4c1.3-1.7,3.1-3,5.8-3c4.3,0,8.5,3.4,8.5,9.6
		v0.1C170.3,396.2,166.2,399.6,161.8,399.6z M165,389.9c0-3.1-2.1-5.1-4.5-5.1c-2.5,0-4.5,2-4.5,5.1v0.1c0,3.1,2,5.1,4.5,5.1
		C162.9,395.1,165,393.2,165,389.9L165,389.9z"/>
	<path fill="#C8C9CA" d="M193.4,399.7c-5.6,0-9.7-4.3-9.7-9.6V390c0-5.3,4.1-9.7,9.8-9.7c3.5,0,5.7,1.2,7.4,3.1l-3.2,3.5
		c-1.2-1.2-2.4-2-4.2-2c-2.6,0-4.5,2.3-4.5,5.1v0.1c0,2.8,1.8,5.1,4.7,5.1c1.8,0,3-0.8,4.3-2l3.1,3.1
		C199.2,398.3,197.1,399.7,193.4,399.7z"/>
	<path fill="#C8C9CA" d="M228.3,399.3v-2.7c-1.3,1.7-3.1,3-5.8,3c-4.3,0-8.5-3.4-8.5-9.6v-0.1c0-6.2,4.1-9.6,8.5-9.6
		c2.8,0,4.5,1.3,5.8,2.8v-9.1h5.3v25.4H228.3z M228.4,389.9c0-3.1-2-5.1-4.5-5.1s-4.5,2-4.5,5.1v0.1c0,3.1,2.1,5.1,4.5,5.1
		S228.4,393.1,228.4,389.9L228.4,389.9z"/>
	<path fill="#C8C9CA" d="M266.1,391.8h-13c0.5,2.4,2.2,3.7,4.5,3.7c1.8,0,3.1-0.6,4.5-1.9l3,2.7c-1.7,2.2-4.2,3.5-7.6,3.5
		c-5.6,0-9.7-3.9-9.7-9.6V390c0-5.3,3.8-9.7,9.2-9.7c6.2,0,9.1,4.8,9.1,10.1v0.1C266.1,391,266.1,391.3,266.1,391.8z M257.1,384.5
		c-2.2,0-3.6,1.6-4,4h7.9C260.7,386.1,259.3,384.5,257.1,384.5z"/>
	<path fill="#C8C9CA" d="M288.5,378.1c-1.2,0-1.9,0.6-1.9,2v0.7h4.3v4.3h-4.2v14.1h-5.3v-14.1h-2.2v-4.3h2.2v-1.2c0-4.1,2-6,5.8-6
		c1.7,0,2.8,0.2,3.7,0.5v4.4C290.2,378.3,289.5,378.1,288.5,378.1z"/>
	<path fill="#C8C9CA" d="M312.6,404.9c-3,0-5.9-0.7-8.2-2l1.8-4c1.9,1.1,3.8,1.7,6.3,1.7c3.6,0,5.3-1.7,5.3-5.1v-0.9
		c-1.6,1.9-3.3,3-6.1,3c-4.3,0-8.3-3.1-8.3-8.7v-0.1c0-5.6,4-8.7,8.3-8.7c2.9,0,4.6,1.2,6,2.8v-2.4h5.3V395
		C323,402.1,319.5,404.9,312.6,404.9z M317.8,389c0-2.6-2-4.3-4.5-4.3c-2.6,0-4.5,1.8-4.5,4.3v0.1c0,2.6,2,4.3,4.5,4.3
		C315.8,393.4,317.8,391.6,317.8,389L317.8,389z"/>
	<path fill="#C8C9CA" d="M349.9,399.3v-10.4c0-2.5-1.2-3.8-3.2-3.8c-2,0-3.3,1.3-3.3,3.8v10.4h-5.3v-25.4h5.3v9.4
		c1.2-1.6,2.8-3,5.4-3c4,0,6.3,2.6,6.3,6.9v12.1L349.9,399.3L349.9,399.3z"/>
	<path fill="#C8C9CA" d="M370.3,378.6v-4.7h5.6v4.7H370.3z M370.5,399.3v-18.6h5.3v18.6H370.5z"/>
	<path fill="#C8C9CA" d="M390.7,404.9c-1,0-1.6-0.1-2.3-0.2v-4.1c0.4,0.1,0.7,0.1,1.1,0.1c1.1,0,1.9-0.6,1.9-2.2v-17.9h5.3V399
		C396.7,403.1,394.6,404.9,390.7,404.9z M391.3,378.6v-4.7h5.6v4.7H391.3z"/>
	<path fill="#C8C9CA" d="M424.1,399.3l-4.9-7.6l-1.8,2v5.7h-5.3v-25.4h5.3v13.5l6.2-6.8h6.3l-7.1,7.4l7.4,11.3L424.1,399.3
		L424.1,399.3z"/>
	<path fill="#C8C9CA" d="M443.3,399.3v-25.4h5.3v25.4H443.3z"/>
	<path fill="#C8C9CA" d="M487.2,399.3v-10.4c0-2.5-1.1-3.8-3.1-3.8c-2,0-3.2,1.3-3.2,3.8v10.4h-5.3v-10.4c0-2.5-1.1-3.8-3.1-3.8
		s-3.2,1.3-3.2,3.8v10.4h-5.3v-18.6h5.3v2.6c1.2-1.6,2.8-3,5.5-3c2.4,0,4.3,1.1,5.3,3c1.6-1.9,3.6-3,6.1-3c3.9,0,6.3,2.4,6.3,6.8
		v12.1H487.2z"/>
	<path fill="#C8C9CA" d="M121.9,441v-10.4c0-2.5-1.2-3.8-3.2-3.8s-3.3,1.3-3.3,3.8V441h-5.3v-18.7h5.3v2.6c1.2-1.6,2.8-3,5.4-3
		c4,0,6.3,2.6,6.3,6.9V441H121.9z"/>
	<path fill="#C8C9CA" d="M151.4,441.4c-5.8,0-10-4.3-10-9.6v0c0-5.4,4.3-9.7,10.1-9.7c5.8,0,10,4.3,10,9.6v0.1
		C161.5,437.1,157.2,441.4,151.4,441.4z M156.3,431.7c0-2.8-2-5.1-4.9-5.1c-3,0-4.8,2.3-4.8,5.1v0.1c0,2.8,2,5.1,4.9,5.1
		C154.4,436.8,156.3,434.5,156.3,431.7L156.3,431.7z"/>
	<path fill="#C8C9CA" d="M186.8,441.3c-2.8,0-4.5-1.3-5.8-2.8v8h-5.3v-24.2h5.3v2.7c1.3-1.7,3.1-3,5.8-3c4.3,0,8.5,3.4,8.5,9.6v0.1
		C195.3,437.9,191.2,441.3,186.8,441.3z M190,431.7c0-3.1-2.1-5.1-4.5-5.1s-4.5,2-4.5,5.1v0.1c0,3.1,2,5.1,4.5,5.1
		S190,434.9,190,431.7L190,431.7z"/>
	<path fill="#C8C9CA" d="M223.1,446.6v-8.2c-1.3,1.7-3.1,3-5.8,3c-4.3,0-8.5-3.4-8.5-9.6v-0.1c0-6.2,4.1-9.6,8.5-9.6
		c2.8,0,4.5,1.3,5.8,2.8v-2.4h5.3v24.2H223.1z M223.2,431.7c0-3.1-2-5.1-4.5-5.1s-4.5,2-4.5,5.1v0.1c0,3.1,2.1,5.1,4.5,5.1
		C221.1,436.9,223.2,434.8,223.2,431.7L223.2,431.7z"/>
	<path fill="#C8C9CA" d="M254.5,427.5c-3.5,0-5.7,2.1-5.7,6.6v6.9h-5.3v-18.7h5.3v3.7c1.1-2.6,2.8-4.2,5.9-4.1v5.5L254.5,427.5
		L254.5,427.5z"/>
	<path fill="#C8C9CA" d="M275,441.3c-2.6,0-5.5-0.8-8-2.8l2.3-3.5c2,1.4,4.1,2.2,5.9,2.2c1.5,0,2.2-0.6,2.2-1.4v-0.1
		c0-1.1-1.8-1.5-3.9-2.2c-2.6-0.8-5.6-2-5.6-5.6v-0.1c0-3.8,3.1-5.9,6.8-5.9c2.4,0,4.9,0.8,7,2.2l-2,3.7c-1.8-1.1-3.7-1.7-5.1-1.7
		c-1.3,0-2,0.6-2,1.3v0.1c0,1.1,1.8,1.5,3.8,2.2c2.6,0.9,5.7,2.1,5.7,5.5v0.1C282.2,439.5,279.1,441.3,275,441.3z"/>
	<path fill="#C8C9CA" d="M302.7,441.3c-3.2,0-5.4-1.3-5.4-5.6v-8.8H295v-4.5h2.2v-4.8h5.3v4.8h4.4v4.5h-4.4v7.9
		c0,1.2,0.5,1.8,1.7,1.8c1,0,1.8-0.3,2.6-0.7v4.2C305.7,440.9,304.5,441.3,302.7,441.3z"/>
	<path fill="#C8C9CA" d="M332.9,441v-2.6c-1.2,1.6-2.8,3-5.4,3c-4,0-6.3-2.6-6.3-6.9v-12.1h5.3v10.4c0,2.5,1.2,3.8,3.2,3.8
		c2,0,3.3-1.3,3.3-3.8v-10.4h5.3V441L332.9,441L332.9,441z"/>
	<path fill="#C8C9CA" d="M363.8,441.1H359l-7.3-18.8h5.6l4.2,12.5l4.2-12.5h5.5L363.8,441.1z"/>
	<path fill="#C8C9CA" d="M405.6,441.1h-4.8l-3.6-11.4l-3.7,11.4h-4.7l-5.7-18.8h5.4l3,11.3l3.5-11.3h4.5l3.5,11.4l3.1-11.3h5.3
		L405.6,441.1z"/>
	<path fill="#C8C9CA" d="M436.5,441l-3.7-5.8L429,441h-5.5l6.5-9.4l-6.3-9.2h5.7l3.5,5.4l3.5-5.4h5.5l-6.3,9.1l6.6,9.6L436.5,441
		L436.5,441z"/>
	<path fill="#C8C9CA" d="M466.3,441.4c-1.4,3.8-3,5.2-6.1,5.2c-1.9,0-3.4-0.5-4.7-1.3l1.8-3.8c0.7,0.4,1.6,0.7,2.3,0.7
		c0.9,0,1.4-0.3,1.8-1.2l-7.3-18.7h5.6l4.2,12.7l4.1-12.7h5.5L466.3,441.4z"/>
	<path fill="#C8C9CA" d="M486.4,441v-3.7l9.6-10.6h-9.3v-4.3h15.9v3.7l-9.6,10.6h9.6v4.3H486.4L486.4,441z"/>
	<path fill="#C8C9CA" d="M209.4,483.1c-6.5,0-10.8-5.4-10.8-12.5c0-7.1,4.3-12.6,10.8-12.6c6.5,0,10.8,5.4,10.8,12.5
		S215.9,483.1,209.4,483.1z M209.4,462.8c-3.2,0-5.3,3.2-5.3,7.7c0,4.5,2.1,7.8,5.4,7.8c3.2,0,5.3-3.3,5.3-7.7
		C214.7,466.1,212.6,462.8,209.4,462.8z"/>
	<path fill="#C8C9CA" d="M229.9,458.2h3.7v24.5h-5.3v-19.1l-4.2,1.1l-1.1-4.4L229.9,458.2z"/>
	<path fill="#C8C9CA" d="M242.5,466.1l-3.7-3c2.4-3.3,4.7-5.1,9.1-5.1c5.2,0,8.4,3,8.4,7.6c0,4.1-2.1,6.1-6.4,9.4l-4,3.1h10.6v4.6
		h-18v-4.2l8.1-6.6c3-2.5,4.2-3.8,4.2-5.8c0-2-1.4-3.1-3.3-3.1C245.6,462.8,244.3,463.9,242.5,466.1z"/>
	<path fill="#C8C9CA" d="M261.2,463v-4.6h16.4v4l-6.2,5.9c3.4,0.6,6.5,2.3,6.5,6.8c0,4.6-3.4,8-8.8,8c-4.4,0-7.4-1.7-9.5-4.2
		l3.7-3.5c1.7,1.9,3.4,2.9,5.9,2.9c2,0,3.4-1.1,3.4-3c0-2-1.7-3.1-4.8-3.1h-2.2l-0.9-3.4l5.8-5.8L261.2,463L261.2,463z"/>
	<path fill="#C8C9CA" d="M298.9,458.2v14.9h3.3v4.3h-3.3v5.2h-5.1v-5.3h-11.9l-0.8-3.8l13.3-15.5L298.9,458.2L298.9,458.2z
		 M293.8,465.5l-6.5,7.6h6.5V465.5z"/>
	<path fill="#C8C9CA" d="M307.8,458.4h15v4.7h-10.4l-0.3,4.2c1-0.3,1.8-0.4,3.2-0.4c4.8,0,8.5,2.3,8.5,7.8c0,5.2-3.7,8.5-9.3,8.5
		c-3.9,0-6.8-1.4-9.1-3.7l3.2-3.9c1.8,1.7,3.7,2.6,5.8,2.6c2.5,0,4.1-1.2,4.1-3.4c0-2.1-1.7-3.4-4.3-3.4c-1.5,0-2.9,0.4-4.1,0.9
		l-3.1-2L307.8,458.4z"/>
	<path fill="#C8C9CA" d="M343.2,464.8c-1.6-1.2-2.9-2-5-2c-3,0-4.5,2.4-4.9,5.7c1.2-0.8,2.6-1.6,5.1-1.6c4.8,0,8.5,2.7,8.5,7.8
		c0,5-4,8.5-9.3,8.5c-3.1,0-5.3-0.9-7-2.6c-1.8-1.8-2.9-4.4-2.9-9.3c0-7.6,3.4-13.3,10.7-13.3c3.3,0,5.4,1,7.6,2.7L343.2,464.8z
		 M337.4,471.4c-2.6,0-4.2,1.4-4.2,3.5c0,2.1,1.6,3.7,4.2,3.7s4.2-1.5,4.2-3.6C341.6,472.8,340,471.4,337.4,471.4z"/>
	<path fill="#C8C9CA" d="M351.2,458.4h17.5v4l-10.9,20.3h-6l10.9-19.7h-11.4L351.2,458.4L351.2,458.4z"/>
	<path fill="#C8C9CA" d="M381.4,483.1c-5.4,0-9.4-2.8-9.4-7.1c0-3,1.4-4.7,3.9-5.9c-1.9-1.1-3.1-2.7-3.1-5.4c0-3.7,3.4-6.7,8.5-6.7
		c5.1,0,8.5,3,8.5,6.7c0,2.6-1.2,4.2-3.1,5.4c2.5,1.3,3.9,2.8,3.9,5.8C390.7,480.4,386.8,483.1,381.4,483.1z M381.4,472.5
		c-2.4,0-4.2,1.1-4.2,3c0,1.7,1.6,3.1,4.2,3.1s4.2-1.3,4.2-3.1C385.6,473.7,383.8,472.5,381.4,472.5z M381.4,462.4
		c-2.2,0-3.5,1.3-3.5,2.8c0,1.7,1.4,3,3.5,3s3.5-1.2,3.5-3C384.8,463.8,383.5,462.4,381.4,462.4z"/>
	<path fill="#C8C9CA" d="M402.8,483.1c-3.5,0-5.9-1.2-8-2.9l2.8-4.1c1.8,1.4,3.3,2.1,5.3,2.1c3,0,4.6-2.3,4.9-5.5
		c-1.2,1-2.8,1.7-4.9,1.7c-5.3,0-8.7-2.9-8.7-7.9c0-4.9,3.8-8.5,9.3-8.5c3.3,0,5.2,0.8,7,2.6c1.7,1.7,2.9,4.4,2.9,9.2
		C413.4,477.7,409.7,483.1,402.8,483.1z M403.7,462.6c-2.6,0-4.1,1.5-4.1,3.7c0,2.2,1.6,3.7,4.2,3.7s4.2-1.5,4.2-3.7
		C408,464.1,406.4,462.6,403.7,462.6z"/>
</g>
</svg>
