<?xml version="1.0" encoding="utf-8"?>
<!-- Generator: Adobe Illustrator 18.0.0, SVG Export Plug-In . SVG Version: 6.00 Build 0)  -->
<!DOCTYPE svg PUBLIC "-//W3C//DTD SVG 1.1//EN" "http://www.w3.org/Graphics/SVG/1.1/DTD/svg11.dtd">
<svg version="1.1" id="Layer_1" xmlns="http://www.w3.org/2000/svg" xmlns:xlink="http://www.w3.org/1999/xlink" x="0px" y="0px"
	 viewBox="0 292 612 208" enable-background="new 0 292 612 208" xml:space="preserve">
<polygon fill="#2583B3" points="138.9,500.5 185.8,500.5 274.5,291.7 "/>
<polygon fill="#B21F2E" points="91.9,500.5 138.9,500.5 227.5,291.8 "/>
<polygon fill="#0D222D" points="0,500.5 91.9,500.5 227.5,291.7 227.5,291.5 0,291.5 "/>
<polygon fill="#D8BB2A" points="185.8,500.5 483.5,500.5 483.5,291.5 274.5,291.5 274.5,291.6 "/>
<polygon fill="#B21F2E" points="324.5,500.5 611.5,500.5 611.5,291.5 460.1,291.5 460.1,291.6 "/>
<polygon fill="#56803F" points="138.9,500.5 138.9,500.5 274.5,291.6 274.5,291.5 227.6,291.5 227.5,291.7 "/>
<polygon fill="#231F20" points="337,500.4 337,500.4 337,500.3 "/>
<polygon fill="#231F20" points="383.9,500.4 384,500.4 384,500.3 "/>
</svg>
