<?xml version="1.0" encoding="utf-8"?>
<!-- Generator: Adobe Illustrator 18.0.0, SVG Export Plug-In . SVG Version: 6.00 Build 0)  -->
<!DOCTYPE svg PUBLIC "-//W3C//DTD SVG 1.1//EN" "http://www.w3.org/Graphics/SVG/1.1/DTD/svg11.dtd">
<svg version="1.1" id="Layer_1" xmlns="http://www.w3.org/2000/svg" xmlns:xlink="http://www.w3.org/1999/xlink" x="0px" y="0px"
	 viewBox="0 0 1379.8 902.6" enable-background="new 0 0 1379.8 902.6" xml:space="preserve">
<rect x="-48.2" y="-26.7" fill="#D8BB2A" width="1472.1" height="941.9"/>
<g>
	<path fill="#0D222D" d="M367,395.6L324.6,336l-37.7,0.2l0.3,59.8l-30.1,0.1l-0.7-171.5l76.5-0.3c39.5-0.2,63.8,20.6,63.9,54.1
		c0.1,28.4-16.7,45.7-40.7,52.4l46.6,64.7L367,395.6z M330.4,251.7l-43.9,0.2l0.2,57.6l44.1-0.2c21.6-0.1,35.2-11.4,35.2-29.1
		C365.9,261.4,352.7,251.6,330.4,251.7z"/>
	
		<rect x="465.6" y="335.7" transform="matrix(-1 4.313368e-03 -4.313368e-03 -1 962.869 729.3027)" fill="#0D222D" width="30" height="60"/>
	<polygon fill="#0D222D" points="568.9,335.3 533.8,335.5 576,395.3 611.6,395.1 	"/>
	<path fill="#0D222D" d="M575,278.3l30.6-0.1c0,0,0.2-0.5,0.2-0.8c-0.1-33-23.8-53.4-61.8-53.9l0.1,27.6
		C563.2,252.1,574.6,261.3,575,278.3z"/>
	<path fill="#0D222D" d="M885.9,406.9v-19.5c-10.8,12.9-27.3,22.8-51.3,22.8c-30,0-56.4-17.1-56.4-48.9v-0.6c0-34.2,27.3-51,64.2-51
		c19.2,0,31.5,2.7,43.8,6.6v-3.9c0-21.9-13.8-33.9-39-33.9c-17.7,0-30.9,3.9-45.3,9.9l-9.9-29.1c17.4-7.8,34.5-13.2,60.3-13.2
		c46.8,0,69.6,24.6,69.6,66.9v93.9H885.9z M886.8,339.7c-9.3-3.6-22.2-6.3-36.3-6.3c-22.8,0-36.3,9.3-36.3,25.5v0.6
		c0,15,13.5,23.4,30.6,23.4c24,0,42-13.5,42-33.3V339.7z"/>
	<path fill="#0D222D" d="M1066.9,387.8c-1,0-1.8,0.3-2.6,0.3c-16.2,0-29.3-7.8-30.7-20.8h-36.1c0.3,31,26.8,48.1,56.6,48.1
		c4.5,0,8.8-0.6,12.8-1.2V387.8z"/>
	<path fill="#0D222D" d="M1056.9,246.1v32.8c18,2,28.9,11.4,30.8,28.4h35.8C1121.5,269.3,1099.9,246.9,1056.9,246.1z"/>
</g>
<g>
	<rect x="519.9" y="586.3" fill="#0D222D" width="43" height="85"/>
	<polygon fill="#0D222D" points="647,586.3 596.9,586.3 656.9,671.3 707.6,671.3 	"/>
	<path fill="#0D222D" d="M786.1,671.3h43.8c0-0.4,0.2-0.9,0.2-1.3c0-47.1-34.1-76.7-88.1-77.7v39.4
		C768.9,633.4,785.6,646.9,786.1,671.3z"/>
	<rect x="386.9" y="633.3" fill="#0D222D" width="99" height="38"/>
	<rect x="313.9" y="638.3" fill="#0D222D" width="39" height="33"/>
	<path fill="#0D222D" d="M980.9,645.8c1,0,1.9-0.2,2.9-0.2c20,0,35.8,9.7,37.5,25.7h44.6c-0.4-38.3-32.7-59.4-69.5-59.4
		c-5.5,0-10.5,0.6-15.5,1.4V645.8z"/>
	<path fill="#0D222D" d="M863.9,596v40.6c23,2.5,36.1,14.5,38.5,34.7h44.4C944.3,624.4,916.9,596.9,863.9,596z"/>
</g>
</svg>
