
<svg xmlns="http://www.w3.org/2000/svg" viewBox="0 0 7002.4 8297.4">
<g id="Layer_2">
	<rect x="-55.3" y="-2" fill="#DAE1E5" width="7112.9" height="8297.2"/>
</g>
<g id="Layer_3" display="none">
	
		<rect x="1350.8" y="1755.1" display="inline" fill="none" stroke="#0D222D" stroke-miterlimit="10" width="1508.5" height="1508.5"/>
	
		<rect x="2878.9" y="1755.1" display="inline" fill="none" stroke="#0D222D" stroke-miterlimit="10" width="1508.5" height="1508.5"/>
	
		<rect x="4407.1" y="1755.1" display="inline" fill="none" stroke="#0D222D" stroke-miterlimit="10" width="1508.5" height="1508.5"/>
	
		<rect x="1350.8" y="244.3" display="inline" fill="none" stroke="#0D222D" stroke-miterlimit="10" width="1508.5" height="1508.5"/>
	
		<rect x="2878.9" y="244.3" display="inline" fill="none" stroke="#0D222D" stroke-miterlimit="10" width="1508.5" height="1508.5"/>
	
		<rect x="4407.1" y="244.3" display="inline" fill="none" stroke="#0D222D" stroke-miterlimit="10" width="1508.5" height="1508.5"/>
	
		<rect x="1350.8" y="3263.6" display="inline" fill="none" stroke="#0D222D" stroke-miterlimit="10" width="1508.5" height="1508.5"/>
	
		<rect x="2878.9" y="3263.6" display="inline" fill="none" stroke="#0D222D" stroke-miterlimit="10" width="1508.5" height="1508.5"/>
	
		<rect x="4407.1" y="3263.6" display="inline" fill="none" stroke="#0D222D" stroke-miterlimit="10" width="1508.5" height="1508.5"/>
	
		<rect x="1350.8" y="4772.2" display="inline" fill="none" stroke="#0D222D" stroke-miterlimit="10" width="1508.5" height="1508.5"/>
	
		<rect x="2878.9" y="4772.2" display="inline" fill="none" stroke="#0D222D" stroke-miterlimit="10" width="1508.5" height="1508.5"/>
	
		<rect x="4407.1" y="4772.2" display="inline" fill="none" stroke="#0D222D" stroke-miterlimit="10" width="1508.5" height="1508.5"/>
	
		<rect x="1350.8" y="6280.7" display="inline" fill="none" stroke="#0D222D" stroke-miterlimit="10" width="1508.5" height="1508.5"/>
	
		<rect x="2878.9" y="6280.7" display="inline" fill="none" stroke="#0D222D" stroke-miterlimit="10" width="1508.5" height="1508.5"/>
	
		<rect x="4407.1" y="6280.7" display="inline" fill="none" stroke="#0D222D" stroke-miterlimit="10" width="1508.5" height="1508.5"/>
</g>
<g id="Layer_1">
	<polygon fill="#0D222D" points="2261.1,5683.7 2009.1,5323.3 1936.9,5323.3 1685.1,5683.7 1777.9,5683.6 1936.9,5443.7 
		1931.9,5971.6 2014.1,5971.6 2009.1,5443.5 2168.3,5683.6 	"/>
	<polygon fill="#0D222D" points="4993.1,5935.5 5353.4,5683.5 5353.4,5611.3 4993.1,5359.5 4993.2,5452.3 5233,5611.3 
		4705.2,5606.3 4705.2,5688.5 5233.3,5683.5 4993.2,5842.6 	"/>
	<polygon fill="#0D222D" points="3537.5,5935.5 3177.1,5683.5 3177.1,5611.3 3537.5,5359.5 3537.3,5452.3 3297.5,5611.3 
		3825.3,5606.3 3825.3,5688.5 3297.2,5683.5 3537.3,5842.6 	"/>
	<g>
		<path fill="#0D222D" d="M2206.5,7024.7c38.6,0,73.3,32.2,73.3,70.7c0,38.6-34.7,70.7-73.3,70.7v-30.9c21.9,0,39.9-18,39.9-39.9
			c0-21.9-18-39.9-39.9-39.9L2206.5,7024.7z"/>
		<path fill="#0D222D" d="M2188.5,7114.7c-38.6,0-73.3-32.2-73.3-70.7c0-38.6,34.7-70.7,73.3-70.7v30.9c-21.9,0-39.9,18-39.9,39.9
			c0,21.9,18,39.9,39.9,39.9L2188.5,7114.7z"/>
		<rect x="1666.3" y="7186.6" fill="#0D222D" width="468.2" height="72.2"/>
		<rect x="2152.5" y="7186.7" fill="#0D222D" width="36" height="72"/>
		<rect x="2206.5" y="7186.7" fill="#0D222D" width="36" height="72"/>
	</g>
	<polygon fill="#0D222D" points="5249.3,2828.4 5249.3,2720.4 5105.3,2720.4 5105.3,2612.4 4961.3,2612.4 4961.3,2504.4 
		4817.3,2504.4 4817.3,2396.4 4669.3,2396.4 4669.3,2432.4 4777.3,2432.4 4777.3,2540.4 4921.3,2540.4 4921.3,2648.4 5065.3,2648.4 
		5065.3,2756.4 5209.3,2756.4 5209.3,2864.4 5389.3,2864.4 5389.3,2828.4 	"/>
	<g>
		<path fill="#0D222D" d="M3734.7,7004c38.6,0,73.3,32.2,73.3,70.7s-34.7,70.7-73.3,70.7v-30.9c21.9,0,39.9-18,39.9-39.9
			s-18-39.9-39.9-39.9L3734.7,7004z"/>
		<path fill="#0D222D" d="M3716.7,7094c-38.6,0-73.3-32.2-73.3-70.7s34.7-70.7,73.3-70.7v30.9c-21.9,0-39.9,18-39.9,39.9
			s18,39.9,39.9,39.9L3716.7,7094z"/>
		<rect x="3194.4" y="7165.8" fill="#0D222D" width="468.2" height="72.2"/>
		<rect x="3680.7" y="7166" fill="#0D222D" width="36" height="72"/>
		<rect x="3734.7" y="7166" fill="#0D222D" width="36" height="72"/>
		<polygon fill="#B31F2E" points="3248.7,6878 3338.7,6878 3734.7,7454 3644.7,7454 		"/>
	</g>
	<g>
		<path fill="#0D222D" d="M1974.5,929.3c-38.6,0-73.3-32.2-73.3-70.7s34.7-70.7,73.3-70.7s73.3,32.2,73.3,70.7
			S2013.1,929.3,1974.5,929.3z M1974.5,818.7c-21.9,0-39.9,18-39.9,39.9s18,39.9,39.9,39.9c21.9,0,39.9-18,39.9-39.9
			S1996.4,818.7,1974.5,818.7z"/>
		<polygon fill="#0D222D" points="1955.2,1451.3 1918.2,1451.3 1919.2,1199.3 1955.2,1199.3 		"/>
		<polygon fill="#0D222D" points="2028.2,1451.3 1991.2,1451.3 1991.2,1199.3 2027.2,1199.3 		"/>
		<path fill="#0D222D" d="M2081.1,1052.5c-1.5-58.4-49.3-105.3-108.1-105.3c-59.7,0-108.1,48.4-108.1,108.1l0.3,144h37l-0.6-144
			c0-39.4,32-71.4,71.4-71.4c39.4,0,71.4,32,71.4,71.4l-0.2,144h37L2081.1,1052.5z"/>
	</g>
	<g>
		<polygon fill="#0D222D" points="1869.9,2771.5 1869.8,2459.8 1924.1,2540.1 1956.5,2540.2 1868.5,2414.3 1843.3,2414.3 
			1755.3,2540.2 1787.8,2540.1 1842,2459.9 1842,2771.6 1787.8,2691.3 1755.3,2691.3 1843.4,2817.1 1868.6,2817.1 1956.5,2691.3 
			1924.1,2691.3 		"/>
		<path fill="#0D222D" d="M2260.5,2414.2c0.6-67.8-17.4-89.7-88.8-89.8l-396.6,0c-68.2-0.6-90,18-90,90v432h0l0,0
			c-0.6,67.8,17.2,89.8,88.4,90l0,0l397.6,0c68.2,0.6,90-18,90-90L2260.5,2414.2z M2171.1,2900.4L2171.1,2900.4l-396.6,0
			c-36,0-53.9-21.8-53.9-54l0,0l0.6-432c0-36,21.8-54,54-54v0l396,0l0,0c36,0,54,21.8,54,54h0l0,0l0,432
			C2225.1,2882.4,2203.2,2900.4,2171.1,2900.4z"/>
		<g>
			<path fill="#0D222D" d="M2090.6,2493.9c-28.7,0-54.6-23.9-54.6-52.6c0-28.7,25.8-52.6,54.6-52.6c28.7,0,54.6,23.9,54.6,52.6
				C2145.1,2470,2119.3,2493.9,2090.6,2493.9z M2090.6,2411.6c-16.3,0-29.7,13.4-29.7,29.7c0,16.3,13.4,29.7,29.7,29.7
				c16.3,0,29.7-13.4,29.7-29.7C2120.2,2425,2106.8,2411.6,2090.6,2411.6z"/>
			<polygon fill="#0D222D" points="2076.2,2882.5 2048.7,2882.5 2049.4,2694.9 2076.2,2694.9 			"/>
			<polygon fill="#0D222D" points="2130.5,2882.5 2103,2882.5 2103,2694.9 2129.8,2694.9 			"/>
			<path fill="#0D222D" d="M2169.9,2585.7c-1.1-43.5-36.7-78.4-80.4-78.4c-44.4,0-80.5,36-80.5,80.5l0.2,107.2h27.5l-0.5-107.2
				c0-29.4,23.8-53.1,53.1-53.1s53.1,23.8,53.1,53.1l-0.1,107.2h27.5L2169.9,2585.7z"/>
		</g>
	</g>
	<g>
		<path fill="#0D222D" d="M5045.8,6999.8c-38.6,0-73.3-32.2-73.3-70.7s34.7-70.7,73.3-70.7c38.6,0,73.3,32.2,73.3,70.7
			S5084.4,6999.8,5045.8,6999.8z M5045.8,6889.2c-21.9,0-39.9,18-39.9,39.9s18,39.9,39.9,39.9c21.9,0,39.9-18,39.9-39.9
			S5067.7,6889.2,5045.8,6889.2z"/>
		<path fill="#0D222D" d="M5154.3,7234l-110,0l0-179.3c39.4,0,71.4,32,71.4,71.4l1.8,69.7h35l-0.1-70
			c-0.2-59.5-48.5-107.8-108.1-107.8h-36l0,252l126.6,0l86.4,144h46L5154.3,7234z"/>
		<g>
			<path fill="#0D222D" d="M5114.3,7308c-16.3,62.4-73,108.4-140.5,108.4c-80.2,0-145.2-65-145.2-145.2c0-80,64.6-144.9,144.5-145.2
				v-37.2c-100.5,0.4-181.8,81.9-181.8,182.5c0,100.8,81.7,182.5,182.5,182.5c74,0,137.6-44,166.3-107.2l-0.2-0.3L5114.3,7308z"/>
		</g>
	</g>
	<g>
		<rect x="5027.8" y="759.6" fill="#0D222D" width="20.9" height="720"/>
		<g>
			<path fill="#0D222D" d="M5265.7,919.2c-38.6,0-73.3-32.2-73.3-70.7c0-38.6,34.7-70.7,73.3-70.7c38.6,0,73.3,32.2,73.3,70.7
				C5339,887.1,5304.3,919.2,5265.7,919.2z M5265.7,808.6c-21.9,0-39.9,18-39.9,39.9c0,21.9,18,39.9,39.9,39.9
				c21.9,0,39.9-18,39.9-39.9C5305.6,826.7,5287.6,808.6,5265.7,808.6z"/>
			<polygon fill="#0D222D" points="5246.4,1441.2 5209.4,1441.2 5210.4,1189.2 5246.4,1189.2 			"/>
			<polygon fill="#0D222D" points="5319.4,1441.2 5282.4,1441.2 5282.4,1189.2 5318.4,1189.2 			"/>
			<path fill="#0D222D" d="M5372.2,1042.5c-1.5-58.4-49.3-105.3-108.1-105.3c-59.7,0-108.1,48.4-108.1,108.1l0.3,144h37l-0.6-144
				c0-39.4,32-71.4,71.4-71.4s71.4,32,71.4,71.4l-0.2,144h37L5372.2,1042.5z"/>
		</g>
		<g>
			<polygon fill="#0D222D" points="4794.3,1441.1 4757.3,1441.1 4758.3,1261.1 4794.3,1261.1 			"/>
			<polygon fill="#0D222D" points="4867.3,1441.1 4830.3,1441.1 4830.3,1261.1 4866.3,1261.1 			"/>
			<path fill="#0D222D" d="M4813.7,919.2c-38.6,0-73.3-32.2-73.3-70.7c0-38.6,34.7-70.7,73.3-70.7c38.6,0,73.3,32.2,73.3,70.7
				C4887,887.1,4852.3,919.2,4813.7,919.2z M4813.7,808.6c-21.9,0-39.9,18-39.9,39.9c0,21.9,18,39.9,39.9,39.9
				c21.9,0,39.9-18,39.9-39.9C4853.6,826.7,4835.6,808.6,4813.7,808.6z"/>
			<path fill="#0D222D" d="M4884.3,1135.1c0,0,36-75.1,36-90c0-56.6-49.3-107.9-108-107.9c-58.7,0-108,51.3-108,107.9
				c0,14.9,36,90,36,90l-54,126h37l53-126c0,0-34.4-81.6-35.3-89.9c0.1-39.1,31.9-71.4,71.3-71.4c39.4,0,71.2,32.3,71.3,71.4
				c-0.9,8.2-35.3,89.9-35.3,89.9l53,126h37L4884.3,1135.1z"/>
		</g>
	</g>
	<g>
		<polygon fill="#0D222D" points="3483.2,1451.2 3446.2,1451.2 3447.2,1271.2 3483.2,1271.2 		"/>
		<polygon fill="#0D222D" points="3556.2,1451.2 3519.2,1451.2 3519.2,1271.2 3555.2,1271.2 		"/>
		<path fill="#0D222D" d="M3502.6,929.4c-38.6,0-73.3-32.2-73.3-70.7s34.7-70.7,73.3-70.7c38.6,0,73.3,32.2,73.3,70.7
			S3541.2,929.4,3502.6,929.4z M3502.6,818.8c-21.9,0-39.9,18-39.9,39.9c0,21.9,18,39.9,39.9,39.9c21.9,0,39.9-18,39.9-39.9
			C3542.5,836.8,3524.5,818.8,3502.6,818.8z"/>
		<path fill="#0D222D" d="M3573.2,1145.2c0,0,36-75.1,36-90c0-56.6-49.3-107.9-108-107.9c-58.7,0-108,51.3-108,107.9
			c0,14.9,36,90,36,90l-54,126h37l53-126c0,0-34.4-81.6-35.3-89.9c0.1-39.1,31.9-71.4,71.3-71.4c39.4,0,71.2,32.3,71.3,71.4
			c-0.9,8.2-35.3,89.9-35.3,89.9l53,126h37L3573.2,1145.2z"/>
	</g>
	<path fill="#0D222D" d="M5299.3,4162.4l-198-132v-174v0c0-38.6-33.5-72-72-72c-38.6,0-72,33.4-72,72h0l0,174l-198,132l4,179
		l194-136.1l0,191.1l-72,52v45l109-78l-1-235v-36l-199,139.1l1-106.2l195-122.8l3-198c0-21.9,14.1-41.1,36-41.1s36,19.3,36,41.1l0,0
		l3,198l195,121.9l2,106.2l-200-138.1l-1,271l109,78v-45l-72-52v-191.1l194,136.1L5299.3,4162.4z"/>
	<g>
		<path fill="#0D222D" d="M3542.5,2458.6c-22.8,0.2-43.5-18.6-43.8-41.4c-0.2-22.8,20.1-42,42.9-42.3c22.8-0.2,43.5,18.6,43.8,41.4
			C3585.6,2439.2,3565.3,2458.4,3542.5,2458.6z M3541.8,2393.2c-12.9,0.1-23.5,10.9-23.3,23.8c0.1,12.9,10.9,23.5,23.8,23.3
			c12.9-0.1,23.5-10.9,23.3-23.8C3565.5,2403.6,3554.7,2393.1,3541.8,2393.2z"/>
		<path fill="#0D222D" d="M3606.2,2530.8c-1.2-34.5-29.8-62-64.5-61.6c-35.3,0.4-63.6,29.3-63.2,64.5l-1.3,45.1l22,9.8l1.1-55.1
			c-0.2-23.3,18.5-42.4,41.8-42.6c23.3-0.2,42.4,18.5,42.6,41.8l0.1,116.1l21.9-0.2L3606.2,2530.8z"/>
		<path fill="#0D222D" d="M3753.6,2687.3L3753.6,2687.3l-79.2,0l-318.1-234v0l-106.7-0.2c-54.8,0-99.2,44.4-99.2,99.2
			c0,54.8,44.4,99.2,99.2,99.2l74.6-0.3l321.4,233.6l107.3,0.9c54.8,0,99.2-44.4,99.2-99.2C3852.1,2731.9,3808,2687.6,3753.6,2687.3
			z M3753.6,2849.7l-95.7-0.4l-319.6-234l-90,0.2c-34.3-0.7-61.9-28.7-61.9-63.1c0-34.5,27.6-62.5,61.9-63.1v0.1h92.3l322.4,234.3
			l89.8-0.3v0.1c34.9,0,63.2,28.3,63.2,63.2C3816,2821.2,3788.1,2849.3,3753.6,2849.7z"/>
	</g>
	<g>
		<path fill="#0D222D" d="M1775.9,4442.4c-38.6,0-73.3-32.2-73.3-70.7s34.7-70.7,73.3-70.7c38.6,0,73.3,32.2,73.3,70.7
			S1814.4,4442.4,1775.9,4442.4z M1775.9,4331.8c-21.9,0-39.9,18-39.9,39.9s18,39.9,39.9,39.9c21.9,0,39.9-18,39.9-39.9
			S1797.7,4331.8,1775.9,4331.8z"/>
		<path fill="#0D222D" d="M2153.9,4442.4c-38.6,0-73.3-32.2-73.3-70.7s34.7-70.7,73.3-70.7s73.3,32.2,73.3,70.7
			S2192.4,4442.4,2153.9,4442.4z M2153.9,4331.8c-21.9,0-39.9,18-39.9,39.9s18,39.9,39.9,39.9c21.9,0,39.9-18,39.9-39.9
			S2175.7,4331.8,2153.9,4331.8z"/>
		<path fill="#0D222D" d="M2260.4,3990.2c-1.2-58.4-41.2-85.3-90.3-85.3c-49.9,0-90.3,28.4-90.3,88.1l-0.2,150.3
			c1.2,58.4,41.2,85.3,90.3,85.3c49.9,0,90.3-28.4,90.3-88.1L2260.4,3990.2z M2170,4192c-32.9,0-54.6-12-54.6-51.4l0.2-147.6
			c0-39.4,21.7-51.4,54.6-51.4s54.6,12,54.6,51.4l-0.2,147.6C2224.6,4180,2202.9,4192,2170,4192z"/>
		<path fill="#0D222D" d="M2062.3,3990.2c-1.2-58.4-41.2-85.3-90.3-85.3c-49.9,0-90.3,28.4-90.3,88.1l-0.2,150.3
			c1.2,58.4,41.2,85.3,90.3,85.3c49.9,0,90.3-28.4,90.3-88.1L2062.3,3990.2z M1971.8,4192c-32.9,0-54.6-12-54.6-51.4l0.2-147.6
			c0-39.4,21.7-51.4,54.6-51.4c32.9,0,54.6,12,54.6,51.4l-0.2,147.6C2026.5,4180,2004.8,4192,1971.8,4192z"/>
		<path fill="#0D222D" d="M1865.2,3990.2c-1.2-58.4-41.2-85.3-90.3-85.3c-49.9,0-90.3,28.4-90.3,88.1l-0.2,150.3
			c1.2,58.4,41.2,85.3,90.3,85.3c49.9,0,90.3-28.4,90.3-88.1L1865.2,3990.2z M1774.8,4192c-32.9,0-54.6-12-54.6-51.4l0.2-147.6
			c0-39.4,21.7-51.4,54.6-51.4c32.9,0,54.6,12,54.6,51.4l-0.2,147.6C1829.4,4180,1807.7,4192,1774.8,4192z"/>
		<path fill="#0D222D" d="M2142.3,3778.9l-338.5,0.1c-95.7,0-173.2,77.6-173.2,173.2v466.4c0,43.9,39.5,80.4,83.3,80.4l518.4-0.1
			c43.9,0,83.3-36.5,83.3-80.4l0-466.4C2315.6,3856.4,2238,3778.9,2142.3,3778.9z M2277.6,4418.5c0,24.8-20.5,45.3-45.3,45.3
			l-518.4,0.1c-24.9,0-45.3-20.5-45.3-45.3l-1.3-466.4c0-75.4,61.1-136.5,136.5-136.5l338.5-0.1c75.4,0,136.5,61.1,136.5,136.5
			L2277.6,4418.5z"/>
	</g>
	<g>
		<path fill="#0D222D" d="M3688.2,3851.2l-376.5,0c-43.8-0.1-79.9,37.5-80,81.3v182.7c-0.1,43.8,38.7,77.9,82.5,78h376.4
			c43.8,0.1,80.9-36.7,81-80.5l0-182.8C3771.8,3886.2,3732,3851.3,3688.2,3851.2z M3690.7,4157.2l-377.4-0.1
			c-24.8-0.1-45.7-20-45.6-44.8v-179.7c0.1-24.8,19.1-45.4,43.9-45.4l379.5,0.1c24.8,0.1,44.8,20.8,44.7,45.6l-0.1,179.7
			C3735.6,4137.4,3715.6,4157.2,3690.7,4157.2z"/>
		<g>
			<path fill="#0D222D" d="M3304.5,4372.7c-38.6,0-73.3-32.2-73.3-70.7c0-38.6,34.7-70.7,73.3-70.7c38.6,0,73.3,32.2,73.3,70.7
				C3377.8,4340.5,3343.1,4372.7,3304.5,4372.7z M3304.5,4262.1c-21.9,0-39.9,18-39.9,39.9c0,21.9,18,39.9,39.9,39.9
				s39.9-18,39.9-39.9C3344.4,4280.1,3326.3,4262.1,3304.5,4262.1z"/>
			<path fill="#0D222D" d="M3682.5,4370.1c-38.6,0-73.3-32.2-73.3-70.7c0-38.6,34.7-70.7,73.3-70.7c38.6,0,73.3,32.2,73.3,70.7
				C3755.8,4338,3721.1,4370.1,3682.5,4370.1z M3682.5,4259.5c-21.9,0-39.9,18-39.9,39.9c0,21.9,18,39.9,39.9,39.9
				s39.9-18,39.9-39.9C3722.4,4277.5,3704.3,4259.5,3682.5,4259.5z"/>
			<path fill="#0D222D" d="M3759.7,3779.2l-520.5,0c-43.8-0.1-79.9,37.5-80,81.3l0,488.8c-0.1,43.8,38.7,77.9,82.5,78h25.3v71.5
				h126.2v-71.5H3609v71.5h126.2v-71.5h27c43.8,0.1,80.9-36.7,81-80.5l0-488.8C3843.3,3814.2,3803.5,3779.3,3759.7,3779.2z
				 M3807.2,4346.6c-0.1,24.8-20.1,44.6-44.9,44.6l-521.4-0.1c-24.8-0.1-45.7-20-45.6-44.8v-485.7c0.1-24.8,19.1-45.4,43.9-45.4
				l523.5,0.1c24.8,0.1,44.8,20.8,44.7,45.6L3807.2,4346.6z"/>
		</g>
	</g>
</g>
</svg>
