<svg xmlns="http://www.w3.org/2000/svg" viewBox="0 0 720 720">
<g id="layer 0">
	<rect width="720" height="720" fill="#fff"/>
</g>
<g id="Layer_1">
	<rect x="186.5" y="196.1" fill="#EBEBEC" width="29.8" height="280.6"/>
	<rect x="503.5" y="196.1" fill="#EBEBEC" width="29.8" height="280.6"/>
	<polygon fill="#EBEBEC" points="533,393.2 533,363.4 126.4,363.4 126.4,393.2 	"/>
	<rect x="126.4" y="418.2" fill="#CDCFD0" width="59.6" height="59.6"/>
	<rect x="533.5" y="418.2" fill="#CDCFD0" width="59.6" height="59.6"/>
	<rect x="126.4" y="196.1" fill="#CDCFD0" width="59.6" height="59.6"/>
	<rect x="533.5" y="196.1" fill="#CDCFD0" width="59.6" height="59.6"/>
	<rect x="186.5" y="196.1" fill="#CDCFD0" width="29.8" height="29.8"/>
	<rect x="126.4" y="363.4" fill="#CDCFD0" width="29.8" height="29.8"/>
	<rect x="503.5" y="196.1" fill="#CDCFD0" width="29.8" height="29.8"/>
	
		<rect x="241.8" y="273.5" transform="matrix(-0.7071 0.7071 -0.7071 -0.7071 642.6177 310.9875)" fill="#CDCFD0" width="30.2" height="30.2"/>
	
		<rect x="269.3" y="280.2" transform="matrix(-0.7071 0.7071 -0.7071 -0.7071 729.8096 317.7)" fill="#CDCFD0" width="59.6" height="59.6"/>
	<rect x="128.4" y="199.7" fill="none" width="22.5" height="14.5"/>
	<text transform="matrix(1 0 0 1 128.3662 207.2031)" font-family="'InsigniaLTStd'" font-size="12">2X</text>
	<rect x="188.5" y="199.7" fill="none" width="22.5" height="14.5"/>
	<text transform="matrix(1 0 0 1 188.5332 207.2031)" font-family="'InsigniaLTStd'" font-size="12">X</text>
</g>
<g id="Layer_2">
	<g>
		<g>
			<path d="M503.5,308l-99.9-21.8l-2,0.6L381.3,307l-32.5-32.5l-1-0.6l-79-17.2l-1.9,0.6l-51.2,51.2v3l51.2,51.2l1.9,0.6l134.8-29.4
				l99.9-21.8V308z M403.8,290.5l79.6,17.4h-97L403.8,290.5z M381.3,313l6.2,6.2l11.4,11.4l-45,9.8L381.3,313z M346.3,278l29.9,29.9
				l-26.7,0h-4.6l-38.7-38.7L346.3,278z M341,310l-41.8,41.8L257.4,310l41.8-41.8L341,310z M269,261.1l25.7,5.6l-41.2,41.2h-31.4
				L269,261.1z M269,359l-46.8-46.8h31.4l41.2,41.2L269,359z M344.9,312.2h4.6l26.8,0l-29.9,29.9l-40.1,8.8L344.9,312.2z
				 M403.8,329.5l-17.4-17.4h97L403.8,329.5z"/>
		</g>
		<g>
			<path d="M186.5,392.8h4.6v24.9h-4.6V392.8z"/>
			<path d="M204.7,392.3l11.1,11.2l11.1-11.2v25.4h-4.6v-15.4l-6.5,6.7l-6.5-6.7v15.4h-4.6V392.3z"/>
			<path d="M241.5,409.9h-3v-4.4h3v-12.7h11.9c5.6,0,9,3.6,9,8.5c0,4.9-3.4,8.5-9,8.5h-7.3v7.9h-4.6V409.9z M246.1,405.5h6.9
				c3.3,0,4.7-1.9,4.7-4.2c0-2.2-1.5-4.2-4.7-4.2h-6.9V405.5z"/>
			<path d="M278.8,396.9H273v-4.1h10.3l10.6,24.9h-5L287,413h-10.6l-1.9,4.7h-4.9L278.8,396.9z M285.4,408.9l-3.6-8.9l-3.6,8.9
				H285.4z"/>
			<path d="M325.6,413.1c-2.8,3.5-6.7,5.1-10.6,5.1c-7.5,0-13.4-5.7-13.4-13c0-7.3,5.9-13,13.4-13c4,0,7.9,1.6,10.6,5.1l-3.8,2.9
				c-1.6-2.3-4-3.6-6.8-3.6c-4.5,0-8.5,3.8-8.5,8.6c0,4.8,4,8.6,8.5,8.6c2.8,0,5.3-1.3,6.9-3.5L325.6,413.1z"/>
			<path d="M342.8,397.2h-7.3v-4.4h19.2v4.4h-7.3v20.5h-4.6V397.2z"/>
			<path d="M391,396.9h-5.7v-4.1h10.3l10.6,24.9h-5l-1.9-4.7h-10.6l-1.9,4.7h-4.9L391,396.9z M397.6,408.9L394,400l-3.6,8.9H397.6z"
				/>
			<path d="M416.6,392.8h4.6v20.5h9.8v-6h4.6v10.3h-19V392.8z"/>
			<path d="M447.5,392.8h4.6v20.5h9.8v-6h4.6v10.3h-19V392.8z"/>
			<path d="M490.1,392.3c7.5,0,13.4,5.7,13.4,13c0,7.3-5.9,13-13.4,13c-7.5,0-13.4-5.7-13.4-13C476.7,398,482.6,392.3,490.1,392.3z
				 M490.1,413.9c4.5,0,8.5-3.8,8.5-8.6c0-4.8-4-8.6-8.5-8.6c-4.5,0-8.5,3.8-8.5,8.6C481.6,410.1,485.6,413.9,490.1,413.9z"/>
			<path d="M519.4,406.7l-8.9-13.9h5.3l5.9,9.7l5.9-9.7h5.3l-8.9,13.9v11h-4.6V406.7z"/>
		</g>
	</g>
</g>
</svg>
